<svg width="25" height="25" viewBox="0 0 25 25" fill="none" xmlns="http://www.w3.org/2000/svg">
<path d="M10.9644 5.3775H14.9644C14.9644 4.27293 14.0689 3.3775 12.9644 3.3775C11.8598 3.3775 10.9644 4.27293 10.9644 5.3775ZM9.46436 5.3775C9.46436 3.44451 11.0314 1.8775 12.9644 1.8775C14.8974 1.8775 16.4644 3.44451 16.4644 5.3775H22.2144C22.6286 5.3775 22.9644 5.71329 22.9644 6.1275C22.9644 6.54172 22.6286 6.8775 22.2144 6.8775H20.8953L19.7232 18.9887C19.5372 20.9109 17.9218 22.3775 15.9907 22.3775H9.93805C8.00689 22.3775 6.3915 20.9109 6.20549 18.9887L5.03343 6.8775H3.71436C3.30014 6.8775 2.96436 6.54172 2.96436 6.1275C2.96436 5.71329 3.30014 5.3775 3.71436 5.3775H9.46436ZM11.4644 10.1275C11.4644 9.71329 11.1286 9.3775 10.7144 9.3775C10.3001 9.3775 9.96436 9.71329 9.96436 10.1275V17.6275C9.96436 18.0417 10.3001 18.3775 10.7144 18.3775C11.1286 18.3775 11.4644 18.0417 11.4644 17.6275V10.1275ZM15.2144 9.3775C15.6286 9.3775 15.9644 9.71329 15.9644 10.1275V17.6275C15.9644 18.0417 15.6286 18.3775 15.2144 18.3775C14.8001 18.3775 14.4644 18.0417 14.4644 17.6275V10.1275C14.4644 9.71329 14.8001 9.3775 15.2144 9.3775ZM7.69851 18.8442C7.81012 19.9975 8.77935 20.8775 9.93805 20.8775H15.9907C17.1494 20.8775 18.1186 19.9975 18.2302 18.8442L19.3883 6.8775H6.54044L7.69851 18.8442Z" fill="#242424"/>
</svg>
