<svg width="257" height="46" viewBox="0 0 257 46" fill="none" xmlns="http://www.w3.org/2000/svg">
<path d="M246.755 42.1429C246.755 41.9287 246.821 41.7487 246.953 41.6028C247.09 41.4525 247.286 41.3773 247.541 41.3773C247.796 41.3773 247.99 41.4525 248.122 41.6028C248.259 41.7487 248.327 41.9287 248.327 42.1429C248.327 42.3525 248.259 42.5303 248.122 42.6761C247.99 42.8219 247.796 42.8948 247.541 42.8948C247.286 42.8948 247.09 42.8219 246.953 42.6761C246.821 42.5303 246.755 42.3525 246.755 42.1429Z" fill="#331C15"/>
<path d="M243.809 40.8509C243.809 40.6686 243.768 40.5 243.686 40.345C243.608 40.1855 243.446 40.042 243.2 39.9144C242.959 39.7822 242.594 39.6683 242.106 39.5726C241.696 39.486 241.325 39.3834 240.992 39.265C240.664 39.1465 240.384 39.0029 240.151 38.8343C239.924 38.6657 239.748 38.4674 239.625 38.2396C239.502 38.0117 239.44 37.7451 239.44 37.4398C239.44 37.1481 239.504 36.8724 239.632 36.6126C239.764 36.3528 239.949 36.1227 240.186 35.9222C240.427 35.7217 240.716 35.5644 241.054 35.4505C241.391 35.3366 241.767 35.2796 242.182 35.2796C242.774 35.2796 243.28 35.3844 243.699 35.5941C244.118 35.8037 244.44 36.084 244.663 36.4349C244.886 36.7812 244.998 37.1663 244.998 37.5901H243.733C243.733 37.3851 243.672 37.1868 243.549 36.9954C243.43 36.7995 243.255 36.6377 243.022 36.5101C242.795 36.3825 242.514 36.3187 242.182 36.3187C241.831 36.3187 241.546 36.3734 241.327 36.4827C241.113 36.5875 240.956 36.722 240.855 36.886C240.76 37.0501 240.712 37.2233 240.712 37.4056C240.712 37.5423 240.735 37.6653 240.78 37.7747C240.83 37.8795 240.917 37.9775 241.04 38.0687C241.163 38.1553 241.336 38.2373 241.56 38.3148C241.783 38.3922 242.068 38.4697 242.414 38.5472C243.02 38.6839 243.519 38.848 243.911 39.0394C244.303 39.2308 244.595 39.4655 244.786 39.7435C244.978 40.0215 245.073 40.3587 245.073 40.7552C245.073 41.0788 245.005 41.375 244.868 41.6439C244.736 41.9127 244.542 42.1452 244.287 42.3411C244.036 42.5325 243.736 42.6829 243.385 42.7923C243.038 42.8971 242.649 42.9495 242.216 42.9495C241.564 42.9495 241.013 42.8333 240.562 42.6009C240.11 42.3685 239.769 42.0677 239.536 41.6985C239.304 41.3294 239.188 40.9398 239.188 40.5296H240.459C240.477 40.876 240.577 41.1517 240.76 41.3568C240.942 41.5573 241.165 41.7008 241.43 41.7874C241.694 41.8694 241.956 41.9105 242.216 41.9105C242.562 41.9105 242.852 41.8649 243.084 41.7737C243.321 41.6826 243.501 41.5573 243.624 41.3978C243.747 41.2383 243.809 41.056 243.809 40.8509Z" fill="#331C15"/>
<path d="M238.019 35.4163V36.387H234.02V35.4163H238.019ZM235.373 33.6185H236.638V40.9808C236.638 41.2314 236.676 41.4206 236.754 41.5482C236.831 41.6758 236.932 41.7601 237.055 41.8011C237.178 41.8421 237.31 41.8626 237.451 41.8626C237.556 41.8626 237.665 41.8535 237.779 41.8353C237.898 41.8125 237.987 41.7943 238.046 41.7806L238.053 42.8128C237.952 42.8447 237.82 42.8743 237.656 42.9017C237.497 42.9336 237.303 42.9495 237.075 42.9495C236.765 42.9495 236.48 42.888 236.221 42.765C235.961 42.6419 235.754 42.4368 235.599 42.1497C235.448 41.8581 235.373 41.4661 235.373 40.9739V33.6185Z" fill="#331C15"/>
<path d="M231.996 40.8509C231.996 40.6686 231.955 40.5 231.873 40.345C231.796 40.1855 231.634 40.042 231.388 39.9144C231.146 39.7822 230.782 39.6683 230.294 39.5726C229.884 39.486 229.512 39.3834 229.18 39.265C228.852 39.1465 228.571 39.0029 228.339 38.8343C228.111 38.6657 227.936 38.4674 227.812 38.2396C227.689 38.0117 227.628 37.7451 227.628 37.4398C227.628 37.1481 227.692 36.8724 227.819 36.6126C227.951 36.3528 228.136 36.1227 228.373 35.9222C228.615 35.7217 228.904 35.5644 229.241 35.4505C229.578 35.3366 229.954 35.2796 230.369 35.2796C230.962 35.2796 231.467 35.3844 231.887 35.5941C232.306 35.8037 232.627 36.084 232.851 36.4349C233.074 36.7812 233.186 37.1663 233.186 37.5901H231.921C231.921 37.3851 231.859 37.1868 231.736 36.9954C231.618 36.7995 231.442 36.6377 231.21 36.5101C230.982 36.3825 230.702 36.3187 230.369 36.3187C230.018 36.3187 229.733 36.3734 229.515 36.4827C229.3 36.5875 229.143 36.722 229.043 36.886C228.947 37.0501 228.899 37.2233 228.899 37.4056C228.899 37.5423 228.922 37.6653 228.968 37.7747C229.018 37.8795 229.104 37.9775 229.228 38.0687C229.351 38.1553 229.524 38.2373 229.747 38.3148C229.97 38.3922 230.255 38.4697 230.602 38.5472C231.208 38.6839 231.707 38.848 232.099 39.0394C232.491 39.2308 232.782 39.4655 232.974 39.7435C233.165 40.0215 233.261 40.3587 233.261 40.7552C233.261 41.0788 233.192 41.375 233.056 41.6439C232.924 41.9127 232.73 42.1452 232.475 42.3411C232.224 42.5325 231.923 42.6829 231.572 42.7923C231.226 42.8971 230.836 42.9495 230.403 42.9495C229.752 42.9495 229.2 42.8333 228.749 42.6009C228.298 42.3685 227.956 42.0677 227.724 41.6985C227.491 41.3294 227.375 40.9398 227.375 40.5296H228.646C228.665 40.876 228.765 41.1517 228.947 41.3568C229.13 41.5573 229.353 41.7008 229.617 41.7874C229.882 41.8694 230.144 41.9105 230.403 41.9105C230.75 41.9105 231.039 41.8649 231.271 41.7737C231.508 41.6826 231.688 41.5573 231.812 41.3978C231.935 41.2383 231.996 41.056 231.996 40.8509Z" fill="#331C15"/>
<path d="M225.659 35.4163V42.8128H224.388V35.4163H225.659ZM224.292 33.4544C224.292 33.2493 224.354 33.0762 224.477 32.9349C224.604 32.7936 224.791 32.723 225.037 32.723C225.279 32.723 225.463 32.7936 225.591 32.9349C225.723 33.0762 225.789 33.2493 225.789 33.4544C225.789 33.6504 225.723 33.819 225.591 33.9603C225.463 34.097 225.279 34.1653 225.037 34.1653C224.791 34.1653 224.604 34.097 224.477 33.9603C224.354 33.819 224.292 33.6504 224.292 33.4544Z" fill="#331C15"/>
<path d="M218.194 35.4163L219.814 38.1097L221.455 35.4163H222.938L220.519 39.0667L223.014 42.8128H221.551L219.842 40.0374L218.133 42.8128H216.663L219.151 39.0667L216.738 35.4163H218.194Z" fill="#331C15"/>
<path d="M215.897 41.7396V42.8128H210.627V41.7396H215.897ZM210.894 32.8597V42.8128H209.574V32.8597H210.894ZM215.2 37.139V38.2122H210.627V37.139H215.2ZM215.829 32.8597V33.9398H210.627V32.8597H215.829Z" fill="#331C15"/>
<path d="M201.357 42.0472L203.415 35.4163H204.769L201.802 43.9544C201.733 44.1367 201.642 44.3327 201.528 44.5423C201.419 44.7565 201.278 44.9593 201.104 45.1507C200.931 45.3421 200.722 45.4971 200.476 45.6155C200.234 45.7386 199.945 45.8001 199.607 45.8001C199.507 45.8001 199.38 45.7864 199.225 45.7591C199.07 45.7318 198.96 45.709 198.896 45.6907L198.89 44.6653C198.926 44.6699 198.983 44.6745 199.061 44.679C199.143 44.6881 199.2 44.6927 199.231 44.6927C199.519 44.6927 199.762 44.654 199.963 44.5765C200.163 44.5036 200.332 44.3782 200.469 44.2005C200.61 44.0273 200.731 43.7881 200.831 43.4827L201.357 42.0472ZM199.847 35.4163L201.768 41.1585L202.096 42.4915L201.187 42.9564L198.466 35.4163H199.847Z" fill="#331C15"/>
<path d="M196.039 41.3773V32.3128H197.311V42.8128H196.148L196.039 41.3773ZM191.062 39.1966V39.053C191.062 38.4879 191.131 37.9752 191.268 37.515C191.409 37.0501 191.607 36.6513 191.862 36.3187C192.122 35.986 192.43 35.7308 192.785 35.553C193.145 35.3707 193.546 35.2796 193.988 35.2796C194.453 35.2796 194.859 35.3616 195.205 35.5257C195.556 35.6852 195.852 35.9199 196.094 36.2298C196.34 36.5351 196.534 36.9043 196.675 37.3372C196.816 37.7702 196.914 38.2601 196.969 38.8069V39.4359C196.919 39.9782 196.821 40.4658 196.675 40.8987C196.534 41.3317 196.34 41.7008 196.094 42.0062C195.852 42.3115 195.556 42.5462 195.205 42.7103C194.854 42.8698 194.444 42.9495 193.975 42.9495C193.542 42.9495 193.145 42.8561 192.785 42.6693C192.43 42.4824 192.122 42.2204 191.862 41.8831C191.607 41.5459 191.409 41.1494 191.268 40.6937C191.131 40.2334 191.062 39.7344 191.062 39.1966ZM192.334 39.053V39.1966C192.334 39.5657 192.37 39.9121 192.443 40.2357C192.521 40.5592 192.639 40.8441 192.799 41.0901C192.958 41.3362 193.161 41.5299 193.407 41.6712C193.653 41.8079 193.947 41.8763 194.289 41.8763C194.708 41.8763 195.052 41.7874 195.321 41.6097C195.595 41.4319 195.813 41.1972 195.978 40.9056C196.142 40.6139 196.269 40.2972 196.36 39.9554V38.3079C196.306 38.0573 196.226 37.8157 196.121 37.5833C196.021 37.3463 195.889 37.1367 195.725 36.9544C195.565 36.7676 195.367 36.6194 195.13 36.5101C194.897 36.4007 194.622 36.346 194.303 36.346C193.956 36.346 193.658 36.4189 193.407 36.5648C193.161 36.706 192.958 36.902 192.799 37.1526C192.639 37.3987 192.521 37.6859 192.443 38.014C192.37 38.3375 192.334 38.6839 192.334 39.053Z" fill="#331C15"/>
<path d="M188.123 41.5482V37.7405C188.123 37.4489 188.064 37.1959 187.945 36.9818C187.831 36.763 187.658 36.5944 187.426 36.4759C187.193 36.3574 186.906 36.2982 186.564 36.2982C186.245 36.2982 185.965 36.3528 185.724 36.4622C185.487 36.5716 185.3 36.7151 185.163 36.8929C185.031 37.0706 184.965 37.262 184.965 37.4671H183.7C183.7 37.2028 183.769 36.9407 183.905 36.681C184.042 36.4212 184.238 36.1865 184.493 35.9769C184.753 35.7627 185.063 35.5941 185.423 35.471C185.787 35.3434 186.193 35.2796 186.64 35.2796C187.177 35.2796 187.651 35.3707 188.062 35.553C188.476 35.7353 188.8 36.011 189.032 36.3802C189.269 36.7448 189.388 37.2028 189.388 37.7542V41.1995C189.388 41.4456 189.408 41.7077 189.449 41.9857C189.495 42.2637 189.561 42.5029 189.647 42.7034V42.8128H188.328C188.264 42.667 188.214 42.4733 188.178 42.2318C188.141 41.9857 188.123 41.7578 188.123 41.5482ZM188.342 38.3284L188.355 39.2171H187.077C186.717 39.2171 186.396 39.2467 186.113 39.306C185.831 39.3607 185.594 39.445 185.402 39.5589C185.211 39.6728 185.065 39.8164 184.965 39.9896C184.865 40.1582 184.814 40.3564 184.814 40.5843C184.814 40.8167 184.867 41.0286 184.972 41.22C185.076 41.4114 185.234 41.5641 185.443 41.678C185.658 41.7874 185.92 41.8421 186.229 41.8421C186.617 41.8421 186.959 41.7601 187.255 41.596C187.551 41.4319 187.786 41.2314 187.959 40.9944C188.137 40.7575 188.232 40.5273 188.246 40.304L188.786 40.9124C188.754 41.1038 188.668 41.3157 188.526 41.5482C188.385 41.7806 188.196 42.0039 187.959 42.2181C187.727 42.4277 187.449 42.6032 187.125 42.7444C186.806 42.8812 186.446 42.9495 186.045 42.9495C185.544 42.9495 185.104 42.8515 184.726 42.6556C184.352 42.4596 184.06 42.1976 183.851 41.8694C183.646 41.5368 183.543 41.1653 183.543 40.7552C183.543 40.3587 183.62 40.0101 183.775 39.7093C183.93 39.404 184.154 39.151 184.445 38.9505C184.737 38.7454 185.088 38.5905 185.498 38.4857C185.908 38.3808 186.366 38.3284 186.872 38.3284H188.342Z" fill="#331C15"/>
<path d="M179.407 42.9495C178.892 42.9495 178.425 42.8629 178.006 42.6898C177.591 42.512 177.233 42.2637 176.933 41.9446C176.636 41.6256 176.409 41.2474 176.249 40.8099C176.09 40.3724 176.01 39.8939 176.01 39.3743V39.0872C176.01 38.4857 176.099 37.9502 176.276 37.4808C176.454 37.0068 176.696 36.6058 177.001 36.2776C177.306 35.9495 177.653 35.7012 178.04 35.5325C178.427 35.3639 178.828 35.2796 179.243 35.2796C179.772 35.2796 180.228 35.3707 180.61 35.553C180.998 35.7353 181.314 35.9905 181.561 36.3187C181.807 36.6422 181.989 37.025 182.107 37.4671C182.226 37.9046 182.285 38.3831 182.285 38.9026V39.47H176.762V38.4378H181.021V38.3421C181.002 38.014 180.934 37.695 180.815 37.3851C180.701 37.0752 180.519 36.82 180.269 36.6194C180.018 36.4189 179.676 36.3187 179.243 36.3187C178.956 36.3187 178.692 36.3802 178.45 36.5032C178.209 36.6217 178.001 36.7995 177.828 37.0364C177.655 37.2734 177.521 37.5628 177.425 37.9046C177.329 38.2464 177.281 38.6406 177.281 39.0872V39.3743C177.281 39.7252 177.329 40.0556 177.425 40.3655C177.525 40.6709 177.669 40.9398 177.855 41.1722C178.047 41.4046 178.277 41.5869 178.546 41.7191C178.819 41.8512 179.129 41.9173 179.476 41.9173C179.922 41.9173 180.3 41.8262 180.61 41.6439C180.92 41.4616 181.191 41.2178 181.424 40.9124L182.189 41.5208C182.03 41.7623 181.827 41.9925 181.581 42.2112C181.335 42.43 181.032 42.6077 180.672 42.7444C180.316 42.8812 179.895 42.9495 179.407 42.9495Z" fill="#331C15"/>
<path d="M172.995 36.5784V42.8128H171.73V35.4163H172.961L172.995 36.5784ZM175.306 35.3753L175.299 36.5511C175.194 36.5283 175.094 36.5146 174.998 36.5101C174.907 36.501 174.802 36.4964 174.684 36.4964C174.392 36.4964 174.134 36.542 173.911 36.6331C173.688 36.7243 173.499 36.8519 173.344 37.0159C173.189 37.18 173.066 37.376 172.975 37.6038C172.888 37.8271 172.831 38.0732 172.804 38.3421L172.448 38.5472C172.448 38.1006 172.492 37.6813 172.578 37.2894C172.669 36.8974 172.808 36.5511 172.995 36.2503C173.182 35.945 173.419 35.708 173.706 35.5394C173.998 35.3662 174.344 35.2796 174.745 35.2796C174.836 35.2796 174.941 35.291 175.06 35.3138C175.178 35.332 175.26 35.3525 175.306 35.3753Z" fill="#331C15"/>
<path d="M169.7 32.3128V42.8128H168.429V32.3128H169.7Z" fill="#331C15"/>
<path d="M163.069 33.7415L159.774 42.8128H158.428L162.222 32.8597H163.09L163.069 33.7415ZM165.831 42.8128L162.529 33.7415L162.509 32.8597H163.377L167.185 42.8128H165.831ZM165.66 39.1282V40.2083H160.068V39.1282H165.66Z" fill="#331C15"/>
<path d="M154.237 35.4163V36.387H150.238V35.4163H154.237ZM151.592 33.6185H152.856V40.9808C152.856 41.2314 152.895 41.4206 152.973 41.5482C153.05 41.6758 153.15 41.7601 153.273 41.8011C153.396 41.8421 153.529 41.8626 153.67 41.8626C153.775 41.8626 153.884 41.8535 153.998 41.8353C154.117 41.8125 154.205 41.7943 154.265 41.7806L154.271 42.8128C154.171 42.8447 154.039 42.8743 153.875 42.9017C153.715 42.9336 153.522 42.9495 153.294 42.9495C152.984 42.9495 152.699 42.888 152.439 42.765C152.18 42.6419 151.972 42.4368 151.817 42.1497C151.667 41.8581 151.592 41.4661 151.592 40.9739V33.6185Z" fill="#331C15"/>
<path d="M147.887 41.5482V37.7405C147.887 37.4489 147.827 37.1959 147.709 36.9818C147.595 36.763 147.422 36.5944 147.189 36.4759C146.957 36.3574 146.67 36.2982 146.328 36.2982C146.009 36.2982 145.729 36.3528 145.487 36.4622C145.25 36.5716 145.063 36.7151 144.927 36.8929C144.795 37.0706 144.729 37.262 144.729 37.4671H143.464C143.464 37.2028 143.532 36.9407 143.669 36.681C143.806 36.4212 144.002 36.1865 144.257 35.9769C144.517 35.7627 144.826 35.5941 145.187 35.471C145.551 35.3434 145.957 35.2796 146.403 35.2796C146.941 35.2796 147.415 35.3707 147.825 35.553C148.24 35.7353 148.563 36.011 148.796 36.3802C149.033 36.7448 149.151 37.2028 149.151 37.7542V41.1995C149.151 41.4456 149.172 41.7077 149.213 41.9857C149.258 42.2637 149.325 42.5029 149.411 42.7034V42.8128H148.092C148.028 42.667 147.978 42.4733 147.941 42.2318C147.905 41.9857 147.887 41.7578 147.887 41.5482ZM148.105 38.3284L148.119 39.2171H146.841C146.481 39.2171 146.16 39.2467 145.877 39.306C145.594 39.3607 145.357 39.445 145.166 39.5589C144.975 39.6728 144.829 39.8164 144.729 39.9896C144.628 40.1582 144.578 40.3564 144.578 40.5843C144.578 40.8167 144.631 41.0286 144.735 41.22C144.84 41.4114 144.997 41.5641 145.207 41.678C145.421 41.7874 145.683 41.8421 145.993 41.8421C146.381 41.8421 146.722 41.7601 147.019 41.596C147.315 41.4319 147.549 41.2314 147.723 40.9944C147.9 40.7575 147.996 40.5273 148.01 40.304L148.55 40.9124C148.518 41.1038 148.431 41.3157 148.29 41.5482C148.149 41.7806 147.96 42.0039 147.723 42.2181C147.49 42.4277 147.212 42.6032 146.889 42.7444C146.57 42.8812 146.21 42.9495 145.809 42.9495C145.307 42.9495 144.868 42.8515 144.489 42.6556C144.116 42.4596 143.824 42.1976 143.614 41.8694C143.409 41.5368 143.307 41.1653 143.307 40.7552C143.307 40.3587 143.384 40.0101 143.539 39.7093C143.694 39.404 143.917 39.151 144.209 38.9505C144.501 38.7454 144.852 38.5905 145.262 38.4857C145.672 38.3808 146.13 38.3284 146.636 38.3284H148.105Z" fill="#331C15"/>
<path d="M137.079 32.3128V42.8128H135.814V32.3128H137.079ZM136.778 38.8343L136.252 38.8138C136.257 38.3079 136.332 37.8408 136.478 37.4124C136.623 36.9795 136.828 36.6035 137.093 36.2845C137.357 35.9655 137.672 35.7194 138.036 35.5462C138.405 35.3685 138.813 35.2796 139.26 35.2796C139.624 35.2796 139.952 35.3297 140.244 35.43C140.536 35.5257 140.784 35.6806 140.989 35.8948C141.199 36.109 141.358 36.387 141.468 36.7288C141.577 37.0661 141.632 37.4785 141.632 37.9661V42.8128H140.36V37.9525C140.36 37.5651 140.303 37.2552 140.189 37.0228C140.076 36.7858 139.909 36.6149 139.69 36.5101C139.472 36.4007 139.203 36.346 138.884 36.346C138.569 36.346 138.282 36.4121 138.022 36.5443C137.767 36.6764 137.546 36.8587 137.359 37.0911C137.177 37.3235 137.034 37.5901 136.929 37.8909C136.828 38.1872 136.778 38.5016 136.778 38.8343Z" fill="#331C15"/>
<path d="M131.33 32.8597V42.8128H130.031V32.8597H131.33ZM134.529 32.8597V33.9398H126.839V32.8597H134.529Z" fill="#331C15"/>
<path d="M119.709 42.0472L121.767 35.4163H123.12L120.153 43.9544C120.085 44.1367 119.994 44.3327 119.88 44.5423C119.771 44.7565 119.629 44.9593 119.456 45.1507C119.283 45.3421 119.073 45.4971 118.827 45.6155C118.586 45.7386 118.296 45.8001 117.959 45.8001C117.859 45.8001 117.731 45.7864 117.576 45.7591C117.421 45.7318 117.312 45.709 117.248 45.6907L117.241 44.6653C117.278 44.6699 117.335 44.6745 117.412 44.679C117.494 44.6881 117.551 44.6927 117.583 44.6927C117.87 44.6927 118.114 44.654 118.314 44.5765C118.515 44.5036 118.684 44.3782 118.82 44.2005C118.962 44.0273 119.082 43.7881 119.183 43.4827L119.709 42.0472ZM118.198 35.4163L120.119 41.1585L120.447 42.4915L119.538 42.9564L116.817 35.4163H118.198Z" fill="#331C15"/>
<path d="M116.147 35.4163V36.387H112.148V35.4163H116.147ZM113.502 33.6185H114.767V40.9808C114.767 41.2314 114.805 41.4206 114.883 41.5482C114.96 41.6758 115.061 41.7601 115.184 41.8011C115.307 41.8421 115.439 41.8626 115.58 41.8626C115.685 41.8626 115.794 41.8535 115.908 41.8353C116.027 41.8125 116.116 41.7943 116.175 41.7806L116.182 42.8128C116.081 42.8447 115.949 42.8743 115.785 42.9017C115.626 42.9336 115.432 42.9495 115.204 42.9495C114.894 42.9495 114.609 42.888 114.35 42.765C114.09 42.6419 113.882 42.4368 113.728 42.1497C113.577 41.8581 113.502 41.4661 113.502 40.9739V33.6185Z" fill="#331C15"/>
<path d="M109.852 41.1038V35.4163H111.123V42.8128H109.913L109.852 41.1038ZM110.091 39.5452L110.617 39.5316C110.617 40.0237 110.565 40.4795 110.46 40.8987C110.36 41.3135 110.196 41.6735 109.968 41.9788C109.74 42.2842 109.441 42.5234 109.072 42.6966C108.703 42.8652 108.254 42.9495 107.726 42.9495C107.366 42.9495 107.035 42.8971 106.734 42.7923C106.438 42.6875 106.183 42.5257 105.969 42.3069C105.755 42.0882 105.588 41.8034 105.47 41.4525C105.356 41.1015 105.299 40.68 105.299 40.1878V35.4163H106.563V40.2015C106.563 40.5342 106.6 40.8099 106.673 41.0286C106.75 41.2428 106.853 41.4137 106.98 41.5413C107.113 41.6644 107.258 41.751 107.418 41.8011C107.582 41.8512 107.751 41.8763 107.924 41.8763C108.462 41.8763 108.888 41.7737 109.202 41.5687C109.517 41.359 109.742 41.0788 109.879 40.7278C110.02 40.3724 110.091 39.9782 110.091 39.5452Z" fill="#331C15"/>
<path d="M102.072 41.5482V37.7405C102.072 37.4489 102.013 37.1959 101.895 36.9818C101.781 36.763 101.607 36.5944 101.375 36.4759C101.143 36.3574 100.855 36.2982 100.514 36.2982C100.195 36.2982 99.9144 36.3528 99.6729 36.4622C99.4359 36.5716 99.249 36.7151 99.1123 36.8929C98.9801 37.0706 98.9141 37.262 98.9141 37.4671H97.6494C97.6494 37.2028 97.7178 36.9407 97.8545 36.681C97.9912 36.4212 98.1872 36.1865 98.4424 35.9769C98.7021 35.7627 99.012 35.5941 99.3721 35.471C99.7367 35.3434 100.142 35.2796 100.589 35.2796C101.127 35.2796 101.601 35.3707 102.011 35.553C102.425 35.7353 102.749 36.011 102.981 36.3802C103.218 36.7448 103.337 37.2028 103.337 37.7542V41.1995C103.337 41.4456 103.357 41.7077 103.398 41.9857C103.444 42.2637 103.51 42.5029 103.597 42.7034V42.8128H102.277C102.214 42.667 102.163 42.4733 102.127 42.2318C102.09 41.9857 102.072 41.7578 102.072 41.5482ZM102.291 38.3284L102.305 39.2171H101.026C100.666 39.2171 100.345 39.2467 100.062 39.306C99.7799 39.3607 99.543 39.445 99.3516 39.5589C99.1602 39.6728 99.0143 39.8164 98.9141 39.9896C98.8138 40.1582 98.7637 40.3564 98.7637 40.5843C98.7637 40.8167 98.8161 41.0286 98.9209 41.22C99.0257 41.4114 99.1829 41.5641 99.3926 41.678C99.6068 41.7874 99.8688 41.8421 100.179 41.8421C100.566 41.8421 100.908 41.7601 101.204 41.596C101.5 41.4319 101.735 41.2314 101.908 40.9944C102.086 40.7575 102.182 40.5273 102.195 40.304L102.735 40.9124C102.703 41.1038 102.617 41.3157 102.476 41.5482C102.334 41.7806 102.145 42.0039 101.908 42.2181C101.676 42.4277 101.398 42.6032 101.074 42.7444C100.755 42.8812 100.395 42.9495 99.9941 42.9495C99.4928 42.9495 99.0531 42.8515 98.6748 42.6556C98.3011 42.4596 98.0094 42.1976 97.7998 41.8694C97.5947 41.5368 97.4922 41.1653 97.4922 40.7552C97.4922 40.3587 97.5697 40.0101 97.7246 39.7093C97.8796 39.404 98.1029 39.151 98.3945 38.9505C98.6862 38.7454 99.0371 38.5905 99.4473 38.4857C99.8574 38.3808 100.315 38.3284 100.821 38.3284H102.291Z" fill="#331C15"/>
<path d="M93.3564 42.9495C92.8415 42.9495 92.3743 42.8629 91.9551 42.6898C91.5404 42.512 91.1826 42.2637 90.8818 41.9446C90.5856 41.6256 90.3577 41.2474 90.1982 40.8099C90.0387 40.3724 89.959 39.8939 89.959 39.3743V39.0872C89.959 38.4857 90.0479 37.9502 90.2256 37.4808C90.4033 37.0068 90.6449 36.6058 90.9502 36.2776C91.2555 35.9495 91.6019 35.7012 91.9893 35.5325C92.3766 35.3639 92.7777 35.2796 93.1924 35.2796C93.721 35.2796 94.1768 35.3707 94.5596 35.553C94.9469 35.7353 95.2637 35.9905 95.5098 36.3187C95.7559 36.6422 95.9382 37.025 96.0566 37.4671C96.1751 37.9046 96.2344 38.3831 96.2344 38.9026V39.47H90.7109V38.4378H94.9697V38.3421C94.9515 38.014 94.8831 37.695 94.7646 37.3851C94.6507 37.0752 94.4684 36.82 94.2178 36.6194C93.9671 36.4189 93.6253 36.3187 93.1924 36.3187C92.9053 36.3187 92.641 36.3802 92.3994 36.5032C92.1579 36.6217 91.9505 36.7995 91.7773 37.0364C91.6042 37.2734 91.4697 37.5628 91.374 37.9046C91.2783 38.2464 91.2305 38.6406 91.2305 39.0872V39.3743C91.2305 39.7252 91.2783 40.0556 91.374 40.3655C91.4743 40.6709 91.6178 40.9398 91.8047 41.1722C91.9961 41.4046 92.2262 41.5869 92.4951 41.7191C92.7686 41.8512 93.0785 41.9173 93.4248 41.9173C93.8714 41.9173 94.2497 41.8262 94.5596 41.6439C94.8695 41.4616 95.1406 41.2178 95.373 40.9124L96.1387 41.5208C95.9792 41.7623 95.7764 41.9925 95.5303 42.2112C95.2842 42.43 94.9811 42.6077 94.6211 42.7444C94.2656 42.8812 93.8441 42.9495 93.3564 42.9495Z" fill="#331C15"/>
<path d="M85.3037 38.1575H82.7812L82.7676 37.098H85.0576C85.4359 37.098 85.7663 37.0342 86.0488 36.9066C86.3314 36.779 86.5501 36.5967 86.7051 36.3597C86.8646 36.1181 86.9443 35.831 86.9443 35.4984C86.9443 35.1338 86.8737 34.8375 86.7324 34.6097C86.5957 34.3773 86.3838 34.2086 86.0967 34.1038C85.8141 33.9944 85.4541 33.9398 85.0166 33.9398H83.0752V42.8128H81.7559V32.8597H85.0166C85.527 32.8597 85.9827 32.9121 86.3838 33.0169C86.7848 33.1172 87.1243 33.2767 87.4023 33.4954C87.6849 33.7096 87.8991 33.9831 88.0449 34.3157C88.1908 34.6484 88.2637 35.0472 88.2637 35.512C88.2637 35.9222 88.1589 36.2936 87.9492 36.6263C87.7396 36.9544 87.4479 37.2233 87.0742 37.4329C86.7051 37.6426 86.2721 37.777 85.7754 37.8362L85.3037 38.1575ZM85.2422 42.8128H82.2617L83.0068 41.7396H85.2422C85.6615 41.7396 86.0169 41.6666 86.3086 41.5208C86.6048 41.375 86.8304 41.1699 86.9854 40.9056C87.1403 40.6367 87.2178 40.32 87.2178 39.9554C87.2178 39.5862 87.1517 39.2672 87.0195 38.9984C86.8874 38.7295 86.68 38.5221 86.3975 38.3763C86.1149 38.2304 85.7503 38.1575 85.3037 38.1575H83.4238L83.4375 37.098H86.0078L86.2881 37.4808C86.7666 37.5218 87.1722 37.6585 87.5049 37.8909C87.8376 38.1188 88.0905 38.4105 88.2637 38.7659C88.4414 39.1214 88.5303 39.5133 88.5303 39.9417C88.5303 40.5615 88.3936 41.0856 88.1201 41.514C87.8512 41.9378 87.4707 42.2614 86.9785 42.4847C86.4863 42.7034 85.9076 42.8128 85.2422 42.8128Z" fill="#331C15"/>
<path d="M73.7373 42.9495C73.2223 42.9495 72.7552 42.8629 72.3359 42.6898C71.9212 42.512 71.5635 42.2637 71.2627 41.9446C70.9665 41.6256 70.7386 41.2474 70.5791 40.8099C70.4196 40.3724 70.3398 39.8939 70.3398 39.3743V39.0872C70.3398 38.4857 70.4287 37.9502 70.6064 37.4808C70.7842 37.0068 71.0257 36.6058 71.3311 36.2776C71.6364 35.9495 71.9827 35.7012 72.3701 35.5325C72.7575 35.3639 73.1585 35.2796 73.5732 35.2796C74.1019 35.2796 74.5576 35.3707 74.9404 35.553C75.3278 35.7353 75.6445 35.9905 75.8906 36.3187C76.1367 36.6422 76.319 37.025 76.4375 37.4671C76.556 37.9046 76.6152 38.3831 76.6152 38.9026V39.47H71.0918V38.4378H75.3506V38.3421C75.3324 38.014 75.264 37.695 75.1455 37.3851C75.0316 37.0752 74.8493 36.82 74.5986 36.6194C74.348 36.4189 74.0062 36.3187 73.5732 36.3187C73.2861 36.3187 73.0218 36.3802 72.7803 36.5032C72.5387 36.6217 72.3314 36.7995 72.1582 37.0364C71.985 37.2734 71.8506 37.5628 71.7549 37.9046C71.6592 38.2464 71.6113 38.6406 71.6113 39.0872V39.3743C71.6113 39.7252 71.6592 40.0556 71.7549 40.3655C71.8551 40.6709 71.9987 40.9398 72.1855 41.1722C72.377 41.4046 72.6071 41.5869 72.876 41.7191C73.1494 41.8512 73.4593 41.9173 73.8057 41.9173C74.2523 41.9173 74.6305 41.8262 74.9404 41.6439C75.2503 41.4616 75.5215 41.2178 75.7539 40.9124L76.5195 41.5208C76.36 41.7623 76.1572 41.9925 75.9111 42.2112C75.665 42.43 75.362 42.6077 75.002 42.7444C74.6465 42.8812 74.2249 42.9495 73.7373 42.9495Z" fill="#331C15"/>
<path d="M64.2217 32.3128V42.8128H62.957V32.3128H64.2217ZM63.9209 38.8343L63.3945 38.8138C63.3991 38.3079 63.4743 37.8408 63.6201 37.4124C63.766 36.9795 63.971 36.6035 64.2354 36.2845C64.4997 35.9655 64.8141 35.7194 65.1787 35.5462C65.5479 35.3685 65.9557 35.2796 66.4023 35.2796C66.7669 35.2796 67.0951 35.3297 67.3867 35.43C67.6784 35.5257 67.9268 35.6806 68.1318 35.8948C68.3415 36.109 68.501 36.387 68.6104 36.7288C68.7197 37.0661 68.7744 37.4785 68.7744 37.9661V42.8128H67.5029V37.9525C67.5029 37.5651 67.446 37.2552 67.332 37.0228C67.2181 36.7858 67.0518 36.6149 66.833 36.5101C66.6143 36.4007 66.3454 36.346 66.0264 36.346C65.7119 36.346 65.4248 36.4121 65.165 36.5443C64.9098 36.6764 64.6888 36.8587 64.502 37.0911C64.3197 37.3235 64.1761 37.5901 64.0713 37.8909C63.971 38.1872 63.9209 38.5016 63.9209 38.8343Z" fill="#331C15"/>
<path d="M58.4727 32.8597V42.8128H57.1738V32.8597H58.4727ZM61.6719 32.8597V33.9398H53.9814V32.8597H61.6719Z" fill="#331C15"/>
<path d="M46.8516 42.0472L48.9092 35.4163H50.2627L47.2959 43.9544C47.2275 44.1367 47.1364 44.3327 47.0225 44.5423C46.9131 44.7565 46.7718 44.9593 46.5986 45.1507C46.4255 45.3421 46.2158 45.4971 45.9697 45.6155C45.7282 45.7386 45.4388 45.8001 45.1016 45.8001C45.0013 45.8001 44.8737 45.7864 44.7188 45.7591C44.5638 45.7318 44.4544 45.709 44.3906 45.6907L44.3838 44.6653C44.4202 44.6699 44.4772 44.6745 44.5547 44.679C44.6367 44.6881 44.6937 44.6927 44.7256 44.6927C45.0127 44.6927 45.2565 44.654 45.457 44.5765C45.6576 44.5036 45.8262 44.3782 45.9629 44.2005C46.1042 44.0273 46.2249 43.7881 46.3252 43.4827L46.8516 42.0472ZM45.3408 35.4163L47.2617 41.1585L47.5898 42.4915L46.6807 42.9564L43.96 35.4163H45.3408Z" fill="#331C15"/>
<path d="M41.793 42.8128H40.5283V34.637C40.5283 34.1038 40.624 33.6549 40.8154 33.2903C41.0114 32.9212 41.2917 32.6432 41.6562 32.4564C42.0208 32.265 42.4538 32.1693 42.9551 32.1693C43.1009 32.1693 43.2467 32.1784 43.3926 32.1966C43.543 32.2148 43.6888 32.2422 43.8301 32.2786L43.7617 33.3109C43.666 33.2881 43.5566 33.2721 43.4336 33.263C43.3151 33.2539 43.1966 33.2493 43.0781 33.2493C42.8092 33.2493 42.5768 33.304 42.3809 33.4134C42.1895 33.5182 42.0436 33.6732 41.9434 33.8782C41.8431 34.0833 41.793 34.3362 41.793 34.637V42.8128ZM43.3652 35.4163V36.387H39.3594V35.4163H43.3652Z" fill="#331C15"/>
<path d="M37.876 35.4163V42.8128H36.6045V35.4163H37.876ZM36.5088 33.4544C36.5088 33.2493 36.5703 33.0762 36.6934 32.9349C36.821 32.7936 37.0078 32.723 37.2539 32.723C37.4954 32.723 37.68 32.7936 37.8076 32.9349C37.9398 33.0762 38.0059 33.2493 38.0059 33.4544C38.0059 33.6504 37.9398 33.819 37.8076 33.9603C37.68 34.097 37.4954 34.1653 37.2539 34.1653C37.0078 34.1653 36.821 34.097 36.6934 33.9603C36.5703 33.819 36.5088 33.6504 36.5088 33.4544Z" fill="#331C15"/>
<path d="M30.0283 36.9954V42.8128H28.7637V35.4163H29.96L30.0283 36.9954ZM29.7275 38.8343L29.2012 38.8138C29.2057 38.3079 29.2809 37.8408 29.4268 37.4124C29.5726 36.9795 29.7777 36.6035 30.042 36.2845C30.3063 35.9655 30.6208 35.7194 30.9854 35.5462C31.3545 35.3685 31.7624 35.2796 32.209 35.2796C32.5736 35.2796 32.9017 35.3297 33.1934 35.43C33.485 35.5257 33.7334 35.6806 33.9385 35.8948C34.1481 36.109 34.3076 36.387 34.417 36.7288C34.5264 37.0661 34.5811 37.4785 34.5811 37.9661V42.8128H33.3096V37.9525C33.3096 37.5651 33.2526 37.2552 33.1387 37.0228C33.0247 36.7858 32.8584 36.6149 32.6396 36.5101C32.4209 36.4007 32.152 36.346 31.833 36.346C31.5186 36.346 31.2314 36.4121 30.9717 36.5443C30.7165 36.6764 30.4954 36.8587 30.3086 37.0911C30.1263 37.3235 29.9827 37.5901 29.8779 37.8909C29.7777 38.1872 29.7275 38.5016 29.7275 38.8343Z" fill="#331C15"/>
<path d="M25.6943 35.4163H26.8428V42.6556C26.8428 43.3073 26.7106 43.8633 26.4463 44.3235C26.182 44.7838 25.8128 45.1325 25.3389 45.3694C24.8695 45.611 24.3271 45.7318 23.7119 45.7318C23.4567 45.7318 23.1559 45.6907 22.8096 45.6087C22.4678 45.5312 22.1305 45.3968 21.7979 45.2054C21.4697 45.0185 21.194 44.7656 20.9707 44.4466L21.6338 43.6946C21.9437 44.0683 22.2673 44.3281 22.6045 44.4739C22.9463 44.6198 23.2835 44.6927 23.6162 44.6927C24.0173 44.6927 24.3636 44.6175 24.6553 44.4671C24.9469 44.3167 25.1725 44.0934 25.332 43.7972C25.4961 43.5055 25.5781 43.1455 25.5781 42.7171V37.0433L25.6943 35.4163ZM20.6016 39.1966V39.053C20.6016 38.4879 20.6676 37.9752 20.7998 37.515C20.9365 37.0501 21.1302 36.6513 21.3809 36.3187C21.6361 35.986 21.9437 35.7308 22.3037 35.553C22.6637 35.3707 23.0693 35.2796 23.5205 35.2796C23.9854 35.2796 24.391 35.3616 24.7373 35.5257C25.0882 35.6852 25.3844 35.9199 25.626 36.2298C25.8721 36.5351 26.0658 36.9043 26.207 37.3372C26.3483 37.7702 26.4463 38.2601 26.501 38.8069V39.4359C26.4508 39.9782 26.3529 40.4658 26.207 40.8987C26.0658 41.3317 25.8721 41.7008 25.626 42.0062C25.3844 42.3115 25.0882 42.5462 24.7373 42.7103C24.3864 42.8698 23.9762 42.9495 23.5068 42.9495C23.0648 42.9495 22.6637 42.8561 22.3037 42.6693C21.9482 42.4824 21.6429 42.2204 21.3877 41.8831C21.1325 41.5459 20.9365 41.1494 20.7998 40.6937C20.6676 40.2334 20.6016 39.7344 20.6016 39.1966ZM21.8662 39.053V39.1966C21.8662 39.5657 21.9027 39.9121 21.9756 40.2357C22.0531 40.5592 22.1693 40.8441 22.3242 41.0901C22.4837 41.3362 22.6865 41.5299 22.9326 41.6712C23.1787 41.8079 23.4727 41.8763 23.8145 41.8763C24.2337 41.8763 24.5801 41.7874 24.8535 41.6097C25.127 41.4319 25.3434 41.1972 25.5029 40.9056C25.667 40.6139 25.7946 40.2972 25.8857 39.9554V38.3079C25.8356 38.0573 25.7581 37.8157 25.6533 37.5833C25.5531 37.3463 25.4209 37.1367 25.2568 36.9544C25.0973 36.7676 24.8991 36.6194 24.6621 36.5101C24.4251 36.4007 24.1471 36.346 23.8281 36.346C23.4818 36.346 23.1833 36.4189 22.9326 36.5648C22.6865 36.706 22.4837 36.902 22.3242 37.1526C22.1693 37.3987 22.0531 37.6859 21.9756 38.014C21.9027 38.3375 21.8662 38.6839 21.8662 39.053Z" fill="#331C15"/>
<path d="M17.6484 41.5482V37.7405C17.6484 37.4489 17.5892 37.1959 17.4707 36.9818C17.3568 36.763 17.1836 36.5944 16.9512 36.4759C16.7188 36.3574 16.4316 36.2982 16.0898 36.2982C15.7708 36.2982 15.4906 36.3528 15.249 36.4622C15.012 36.5716 14.8252 36.7151 14.6885 36.8929C14.5563 37.0706 14.4902 37.262 14.4902 37.4671H13.2256C13.2256 37.2028 13.2939 36.9407 13.4307 36.681C13.5674 36.4212 13.7633 36.1865 14.0186 35.9769C14.2783 35.7627 14.5882 35.5941 14.9482 35.471C15.3128 35.3434 15.7184 35.2796 16.165 35.2796C16.7028 35.2796 17.1768 35.3707 17.5869 35.553C18.0016 35.7353 18.3252 36.011 18.5576 36.3802C18.7946 36.7448 18.9131 37.2028 18.9131 37.7542V41.1995C18.9131 41.4456 18.9336 41.7077 18.9746 41.9857C19.0202 42.2637 19.0863 42.5029 19.1729 42.7034V42.8128H17.8535C17.7897 42.667 17.7396 42.4733 17.7031 42.2318C17.6667 41.9857 17.6484 41.7578 17.6484 41.5482ZM17.8672 38.3284L17.8809 39.2171H16.6025C16.2425 39.2171 15.9212 39.2467 15.6387 39.306C15.3561 39.3607 15.1191 39.445 14.9277 39.5589C14.7363 39.6728 14.5905 39.8164 14.4902 39.9896C14.39 40.1582 14.3398 40.3564 14.3398 40.5843C14.3398 40.8167 14.3923 41.0286 14.4971 41.22C14.6019 41.4114 14.7591 41.5641 14.9688 41.678C15.1829 41.7874 15.445 41.8421 15.7549 41.8421C16.1423 41.8421 16.484 41.7601 16.7803 41.596C17.0765 41.4319 17.3112 41.2314 17.4844 40.9944C17.6621 40.7575 17.7578 40.5273 17.7715 40.304L18.3115 40.9124C18.2796 41.1038 18.193 41.3157 18.0518 41.5482C17.9105 41.7806 17.7214 42.0039 17.4844 42.2181C17.252 42.4277 16.974 42.6032 16.6504 42.7444C16.3314 42.8812 15.9714 42.9495 15.5703 42.9495C15.069 42.9495 14.6292 42.8515 14.251 42.6556C13.8773 42.4596 13.5856 42.1976 13.376 41.8694C13.1709 41.5368 13.0684 41.1653 13.0684 40.7552C13.0684 40.3587 13.1458 40.0101 13.3008 39.7093C13.4557 39.404 13.679 39.151 13.9707 38.9505C14.2624 38.7454 14.6133 38.5905 15.0234 38.4857C15.4336 38.3808 15.8916 38.3284 16.3975 38.3284H17.8672Z" fill="#331C15"/>
<path d="M1.67285 32.8597H2.95117L6.21191 40.9739L9.46582 32.8597H10.751L6.7041 42.8128H5.70605L1.67285 32.8597ZM1.25586 32.8597H2.38379L2.56836 38.93V42.8128H1.25586V32.8597ZM10.0332 32.8597H11.1611V42.8128H9.84863V38.93L10.0332 32.8597Z" fill="#331C15"/>
<path d="M251.103 20.8382V29.6566H249.831V19.4163H250.993L251.103 20.8382ZM256.086 23.053V23.1966C256.086 23.7344 256.022 24.2334 255.895 24.6937C255.767 25.1494 255.58 25.5459 255.334 25.8831C255.092 26.2204 254.794 26.4824 254.438 26.6693C254.083 26.8561 253.675 26.9495 253.215 26.9495C252.745 26.9495 252.331 26.872 251.971 26.7171C251.611 26.5622 251.305 26.3366 251.055 26.0403C250.804 25.7441 250.604 25.3887 250.453 24.9739C250.307 24.5592 250.207 24.0921 250.152 23.5726V22.8069C250.207 22.2601 250.31 21.7702 250.46 21.3372C250.61 20.9043 250.809 20.5351 251.055 20.2298C251.305 19.9199 251.608 19.6852 251.964 19.5257C252.319 19.3616 252.729 19.2796 253.194 19.2796C253.659 19.2796 254.072 19.3707 254.432 19.553C254.792 19.7308 255.095 19.986 255.341 20.3187C255.587 20.6513 255.771 21.0501 255.895 21.515C256.022 21.9752 256.086 22.4879 256.086 23.053ZM254.814 23.1966V23.053C254.814 22.6839 254.776 22.3375 254.698 22.014C254.621 21.6859 254.5 21.3987 254.336 21.1526C254.176 20.902 253.971 20.706 253.721 20.5648C253.47 20.4189 253.172 20.346 252.825 20.346C252.506 20.346 252.228 20.4007 251.991 20.5101C251.759 20.6194 251.561 20.7676 251.396 20.9544C251.232 21.1367 251.098 21.3463 250.993 21.5833C250.893 21.8157 250.818 22.0573 250.768 22.3079V24.0784C250.859 24.3974 250.986 24.6982 251.15 24.9808C251.314 25.2588 251.533 25.4844 251.807 25.6575C252.08 25.8262 252.424 25.9105 252.839 25.9105C253.181 25.9105 253.475 25.8398 253.721 25.6985C253.971 25.5527 254.176 25.3545 254.336 25.1038C254.5 24.8532 254.621 24.5661 254.698 24.2425C254.776 23.9144 254.814 23.5657 254.814 23.1966Z" fill="#331C15"/>
<path d="M246.639 25.1038V19.4163H247.91V26.8128H246.7L246.639 25.1038ZM246.878 23.5452L247.404 23.5316C247.404 24.0237 247.352 24.4795 247.247 24.8987C247.147 25.3135 246.983 25.6735 246.755 25.9788C246.527 26.2842 246.229 26.5234 245.859 26.6966C245.49 26.8652 245.041 26.9495 244.513 26.9495C244.153 26.9495 243.822 26.8971 243.521 26.7923C243.225 26.6875 242.97 26.5257 242.756 26.3069C242.542 26.0882 242.375 25.8034 242.257 25.4525C242.143 25.1015 242.086 24.68 242.086 24.1878V19.4163H243.351V24.2015C243.351 24.5342 243.387 24.8099 243.46 25.0286C243.537 25.2428 243.64 25.4137 243.768 25.5413C243.9 25.6644 244.046 25.751 244.205 25.8011C244.369 25.8512 244.538 25.8763 244.711 25.8763C245.249 25.8763 245.675 25.7737 245.989 25.5687C246.304 25.359 246.529 25.0788 246.666 24.7278C246.807 24.3724 246.878 23.9782 246.878 23.5452Z" fill="#331C15"/>
<path d="M237.759 26.9495C237.244 26.9495 236.777 26.8629 236.357 26.6898C235.943 26.512 235.585 26.2637 235.284 25.9446C234.988 25.6256 234.76 25.2474 234.601 24.8099C234.441 24.3724 234.361 23.8939 234.361 23.3743V23.0872C234.361 22.4857 234.45 21.9502 234.628 21.4808C234.806 21.0068 235.047 20.6058 235.353 20.2776C235.658 19.9495 236.004 19.7012 236.392 19.5325C236.779 19.3639 237.18 19.2796 237.595 19.2796C238.123 19.2796 238.579 19.3707 238.962 19.553C239.349 19.7353 239.666 19.9905 239.912 20.3187C240.158 20.6422 240.34 21.025 240.459 21.4671C240.577 21.9046 240.637 22.3831 240.637 22.9026V23.47H235.113V22.4378H239.372V22.3421C239.354 22.014 239.285 21.695 239.167 21.3851C239.053 21.0752 238.871 20.82 238.62 20.6194C238.369 20.4189 238.028 20.3187 237.595 20.3187C237.308 20.3187 237.043 20.3802 236.802 20.5032C236.56 20.6217 236.353 20.7995 236.18 21.0364C236.007 21.2734 235.872 21.5628 235.776 21.9046C235.681 22.2464 235.633 22.6406 235.633 23.0872V23.3743C235.633 23.7252 235.681 24.0556 235.776 24.3655C235.877 24.6709 236.02 24.9398 236.207 25.1722C236.398 25.4046 236.629 25.5869 236.897 25.7191C237.171 25.8512 237.481 25.9173 237.827 25.9173C238.274 25.9173 238.652 25.8262 238.962 25.6439C239.272 25.4616 239.543 25.2178 239.775 24.9124L240.541 25.5208C240.382 25.7623 240.179 25.9925 239.933 26.2112C239.687 26.43 239.383 26.6077 239.023 26.7444C238.668 26.8812 238.246 26.9495 237.759 26.9495Z" fill="#331C15"/>
<path d="M229.002 16.3128V26.8128H227.73V16.3128H229.002ZM233.521 19.4163L230.294 22.8685L228.489 24.7415L228.387 23.3948L229.679 21.8499L231.976 19.4163H233.521ZM232.365 26.8128L229.727 23.2855L230.383 22.1575L233.855 26.8128H232.365Z" fill="#331C15"/>
<path d="M224.477 25.5482V21.7405C224.477 21.4489 224.417 21.1959 224.299 20.9818C224.185 20.763 224.012 20.5944 223.779 20.4759C223.547 20.3574 223.26 20.2982 222.918 20.2982C222.599 20.2982 222.319 20.3528 222.077 20.4622C221.84 20.5716 221.653 20.7151 221.517 20.8929C221.384 21.0706 221.318 21.262 221.318 21.4671H220.054C220.054 21.2028 220.122 20.9407 220.259 20.681C220.396 20.4212 220.591 20.1865 220.847 19.9769C221.106 19.7627 221.416 19.5941 221.776 19.471C222.141 19.3434 222.547 19.2796 222.993 19.2796C223.531 19.2796 224.005 19.3707 224.415 19.553C224.83 19.7353 225.153 20.011 225.386 20.3802C225.623 20.7448 225.741 21.2028 225.741 21.7542V25.1995C225.741 25.4456 225.762 25.7077 225.803 25.9857C225.848 26.2637 225.914 26.5029 226.001 26.7034V26.8128H224.682C224.618 26.667 224.568 26.4733 224.531 26.2318C224.495 25.9857 224.477 25.7578 224.477 25.5482ZM224.695 22.3284L224.709 23.2171H223.431C223.071 23.2171 222.749 23.2467 222.467 23.306C222.184 23.3607 221.947 23.445 221.756 23.5589C221.564 23.6728 221.419 23.8164 221.318 23.9896C221.218 24.1582 221.168 24.3564 221.168 24.5843C221.168 24.8167 221.22 25.0286 221.325 25.22C221.43 25.4114 221.587 25.5641 221.797 25.678C222.011 25.7874 222.273 25.8421 222.583 25.8421C222.97 25.8421 223.312 25.7601 223.608 25.596C223.905 25.4319 224.139 25.2314 224.312 24.9944C224.49 24.7575 224.586 24.5273 224.6 24.304L225.14 24.9124C225.108 25.1038 225.021 25.3157 224.88 25.5482C224.739 25.7806 224.549 26.0039 224.312 26.2181C224.08 26.4277 223.802 26.6032 223.479 26.7444C223.16 26.8812 222.799 26.9495 222.398 26.9495C221.897 26.9495 221.457 26.8515 221.079 26.6556C220.705 26.4596 220.414 26.1976 220.204 25.8694C219.999 25.5368 219.896 25.1653 219.896 24.7552C219.896 24.3587 219.974 24.0101 220.129 23.7093C220.284 23.404 220.507 23.151 220.799 22.9505C221.09 22.7454 221.441 22.5905 221.852 22.4857C222.262 22.3808 222.72 22.3284 223.226 22.3284H224.695Z" fill="#331C15"/>
<path d="M208.501 16.8597H209.779L213.04 24.9739L216.294 16.8597H217.579L213.532 26.8128H212.534L208.501 16.8597ZM208.084 16.8597H209.212L209.396 22.93V26.8128H208.084V16.8597ZM216.861 16.8597H217.989V26.8128H216.677V22.93L216.861 16.8597Z" fill="#331C15"/>
<path d="M200.94 20.5784V26.8128H199.676V19.4163H200.906L200.94 20.5784ZM203.251 19.3753L203.244 20.5511C203.139 20.5283 203.039 20.5146 202.943 20.5101C202.852 20.501 202.747 20.4964 202.629 20.4964C202.337 20.4964 202.08 20.542 201.856 20.6331C201.633 20.7243 201.444 20.8519 201.289 21.0159C201.134 21.18 201.011 21.376 200.92 21.6038C200.833 21.8271 200.776 22.0732 200.749 22.3421L200.394 22.5472C200.394 22.1006 200.437 21.6813 200.523 21.2894C200.615 20.8974 200.754 20.5511 200.94 20.2503C201.127 19.945 201.364 19.708 201.651 19.5394C201.943 19.3662 202.289 19.2796 202.69 19.2796C202.782 19.2796 202.886 19.291 203.005 19.3138C203.123 19.332 203.205 19.3525 203.251 19.3753Z" fill="#331C15"/>
<path d="M196.477 25.1038V19.4163H197.748V26.8128H196.538L196.477 25.1038ZM196.716 23.5452L197.242 23.5316C197.242 24.0237 197.19 24.4795 197.085 24.8987C196.985 25.3135 196.821 25.6735 196.593 25.9788C196.365 26.2842 196.066 26.5234 195.697 26.6966C195.328 26.8652 194.879 26.9495 194.351 26.9495C193.991 26.9495 193.66 26.8971 193.359 26.7923C193.063 26.6875 192.808 26.5257 192.594 26.3069C192.38 26.0882 192.213 25.8034 192.095 25.4525C191.981 25.1015 191.924 24.68 191.924 24.1878V19.4163H193.188V24.2015C193.188 24.5342 193.225 24.8099 193.298 25.0286C193.375 25.2428 193.478 25.4137 193.605 25.5413C193.738 25.6644 193.883 25.751 194.043 25.8011C194.207 25.8512 194.376 25.8763 194.549 25.8763C195.087 25.8763 195.513 25.7737 195.827 25.5687C196.142 25.359 196.367 25.0788 196.504 24.7278C196.645 24.3724 196.716 23.9782 196.716 23.5452Z" fill="#331C15"/>
<path d="M190.167 21.5218V22.1507C190.167 22.8981 190.074 23.568 189.887 24.1605C189.7 24.7529 189.431 25.2565 189.08 25.6712C188.729 26.0859 188.308 26.4026 187.815 26.6214C187.328 26.8401 186.781 26.9495 186.175 26.9495C185.587 26.9495 185.047 26.8401 184.555 26.6214C184.067 26.4026 183.643 26.0859 183.283 25.6712C182.928 25.2565 182.652 24.7529 182.456 24.1605C182.26 23.568 182.162 22.8981 182.162 22.1507V21.5218C182.162 20.7744 182.258 20.1068 182.449 19.5189C182.645 18.9264 182.921 18.4228 183.276 18.0081C183.632 17.5888 184.053 17.2698 184.541 17.0511C185.033 16.8323 185.573 16.723 186.161 16.723C186.767 16.723 187.314 16.8323 187.802 17.0511C188.294 17.2698 188.715 17.5888 189.066 18.0081C189.422 18.4228 189.693 18.9264 189.88 19.5189C190.071 20.1068 190.167 20.7744 190.167 21.5218ZM188.861 22.1507V21.5081C188.861 20.9157 188.8 20.3916 188.677 19.9359C188.558 19.4801 188.383 19.0973 188.15 18.7874C187.918 18.4775 187.633 18.2428 187.296 18.0833C186.963 17.9238 186.585 17.8441 186.161 17.8441C185.751 17.8441 185.38 17.9238 185.047 18.0833C184.719 18.2428 184.436 18.4775 184.199 18.7874C183.967 19.0973 183.787 19.4801 183.659 19.9359C183.532 20.3916 183.468 20.9157 183.468 21.5081V22.1507C183.468 22.7477 183.532 23.2763 183.659 23.7366C183.787 24.1924 183.969 24.5775 184.206 24.8919C184.448 25.2018 184.732 25.4365 185.061 25.596C185.393 25.7555 185.765 25.8353 186.175 25.8353C186.603 25.8353 186.984 25.7555 187.316 25.596C187.649 25.4365 187.929 25.2018 188.157 24.8919C188.39 24.5775 188.565 24.1924 188.684 23.7366C188.802 23.2763 188.861 22.7477 188.861 22.1507Z" fill="#331C15"/>
<path d="M177.356 19.4163V20.387H173.357V19.4163H177.356ZM174.711 17.6185H175.976V24.9808C175.976 25.2314 176.014 25.4206 176.092 25.5482C176.169 25.6758 176.27 25.7601 176.393 25.8011C176.516 25.8421 176.648 25.8626 176.789 25.8626C176.894 25.8626 177.003 25.8535 177.117 25.8353C177.236 25.8125 177.325 25.7943 177.384 25.7806L177.391 26.8128C177.29 26.8447 177.158 26.8743 176.994 26.9017C176.835 26.9336 176.641 26.9495 176.413 26.9495C176.103 26.9495 175.818 26.888 175.559 26.765C175.299 26.6419 175.091 26.4368 174.937 26.1497C174.786 25.8581 174.711 25.4661 174.711 24.9739V17.6185Z" fill="#331C15"/>
<path d="M169.905 26.9495C169.39 26.9495 168.923 26.8629 168.504 26.6898C168.089 26.512 167.731 26.2637 167.431 25.9446C167.134 25.6256 166.907 25.2474 166.747 24.8099C166.588 24.3724 166.508 23.8939 166.508 23.3743V23.0872C166.508 22.4857 166.597 21.9502 166.774 21.4808C166.952 21.0068 167.194 20.6058 167.499 20.2776C167.804 19.9495 168.151 19.7012 168.538 19.5325C168.925 19.3639 169.326 19.2796 169.741 19.2796C170.27 19.2796 170.726 19.3707 171.108 19.553C171.496 19.7353 171.812 19.9905 172.059 20.3187C172.305 20.6422 172.487 21.025 172.605 21.4671C172.724 21.9046 172.783 22.3831 172.783 22.9026V23.47H167.26V22.4378H171.519V22.3421C171.5 22.014 171.432 21.695 171.313 21.3851C171.2 21.0752 171.017 20.82 170.767 20.6194C170.516 20.4189 170.174 20.3187 169.741 20.3187C169.454 20.3187 169.19 20.3802 168.948 20.5032C168.707 20.6217 168.499 20.7995 168.326 21.0364C168.153 21.2734 168.019 21.5628 167.923 21.9046C167.827 22.2464 167.779 22.6406 167.779 23.0872V23.3743C167.779 23.7252 167.827 24.0556 167.923 24.3655C168.023 24.6709 168.167 24.9398 168.354 25.1722C168.545 25.4046 168.775 25.5869 169.044 25.7191C169.317 25.8512 169.627 25.9173 169.974 25.9173C170.42 25.9173 170.799 25.8262 171.108 25.6439C171.418 25.4616 171.689 25.2178 171.922 24.9124L172.688 25.5208C172.528 25.7623 172.325 25.9925 172.079 26.2112C171.833 26.43 171.53 26.6077 171.17 26.7444C170.814 26.8812 170.393 26.9495 169.905 26.9495Z" fill="#331C15"/>
<path d="M165.517 25.7396V26.8128H160.54V25.7396H165.517ZM160.8 16.8597V26.8128H159.48V16.8597H160.8Z" fill="#331C15"/>
<path d="M154.203 25.3089V26.3275C154.203 26.7422 154.098 27.1797 153.889 27.64C153.679 28.1048 153.385 28.4922 153.007 28.8021L152.289 28.303C152.435 28.1025 152.558 27.8974 152.658 27.6878C152.758 27.4827 152.834 27.2685 152.884 27.0452C152.938 26.8265 152.966 26.5941 152.966 26.348V25.3089H154.203Z" fill="#331C15"/>
<path d="M146.581 20.9954V26.8128H145.316V19.4163H146.513L146.581 20.9954ZM146.28 22.8343L145.754 22.8138C145.758 22.3079 145.834 21.8408 145.979 21.4124C146.125 20.9795 146.33 20.6035 146.595 20.2845C146.859 19.9655 147.174 19.7194 147.538 19.5462C147.907 19.3685 148.315 19.2796 148.762 19.2796C149.126 19.2796 149.454 19.3297 149.746 19.43C150.038 19.5257 150.286 19.6806 150.491 19.8948C150.701 20.109 150.86 20.387 150.97 20.7288C151.079 21.0661 151.134 21.4785 151.134 21.9661V26.8128H149.862V21.9525C149.862 21.5651 149.805 21.2552 149.691 21.0228C149.577 20.7858 149.411 20.6149 149.192 20.5101C148.974 20.4007 148.705 20.346 148.386 20.346C148.071 20.346 147.784 20.4121 147.524 20.5443C147.269 20.6764 147.048 20.8587 146.861 21.0911C146.679 21.3235 146.535 21.5901 146.431 21.8909C146.33 22.1872 146.28 22.5016 146.28 22.8343Z" fill="#331C15"/>
<path d="M136.997 23.1966V23.0394C136.997 22.5062 137.075 22.0117 137.229 21.556C137.384 21.0957 137.608 20.6969 137.899 20.3597C138.191 20.0179 138.544 19.7536 138.959 19.5667C139.374 19.3753 139.839 19.2796 140.354 19.2796C140.873 19.2796 141.34 19.3753 141.755 19.5667C142.174 19.7536 142.53 20.0179 142.821 20.3597C143.118 20.6969 143.343 21.0957 143.498 21.556C143.653 22.0117 143.73 22.5062 143.73 23.0394V23.1966C143.73 23.7298 143.653 24.2243 143.498 24.68C143.343 25.1357 143.118 25.5345 142.821 25.8763C142.53 26.2135 142.176 26.4778 141.762 26.6693C141.352 26.8561 140.887 26.9495 140.367 26.9495C139.848 26.9495 139.381 26.8561 138.966 26.6693C138.551 26.4778 138.196 26.2135 137.899 25.8763C137.608 25.5345 137.384 25.1357 137.229 24.68C137.075 24.2243 136.997 23.7298 136.997 23.1966ZM138.262 23.0394V23.1966C138.262 23.5657 138.305 23.9144 138.392 24.2425C138.478 24.5661 138.608 24.8532 138.781 25.1038C138.959 25.3545 139.18 25.5527 139.444 25.6985C139.709 25.8398 140.016 25.9105 140.367 25.9105C140.714 25.9105 141.017 25.8398 141.276 25.6985C141.541 25.5527 141.759 25.3545 141.933 25.1038C142.106 24.8532 142.236 24.5661 142.322 24.2425C142.413 23.9144 142.459 23.5657 142.459 23.1966V23.0394C142.459 22.6748 142.413 22.3307 142.322 22.0071C142.236 21.679 142.104 21.3896 141.926 21.139C141.753 20.8838 141.534 20.6832 141.27 20.5374C141.01 20.3916 140.704 20.3187 140.354 20.3187C140.007 20.3187 139.702 20.3916 139.438 20.5374C139.178 20.6832 138.959 20.8838 138.781 21.139C138.608 21.3896 138.478 21.679 138.392 22.0071C138.305 22.3307 138.262 22.6748 138.262 23.0394Z" fill="#331C15"/>
<path d="M135.302 19.4163V26.8128H134.03V19.4163H135.302ZM133.935 17.4544C133.935 17.2493 133.996 17.0762 134.119 16.9349C134.247 16.7936 134.434 16.723 134.68 16.723C134.921 16.723 135.106 16.7936 135.233 16.9349C135.366 17.0762 135.432 17.2493 135.432 17.4544C135.432 17.6504 135.366 17.819 135.233 17.9603C135.106 18.097 134.921 18.1653 134.68 18.1653C134.434 18.1653 134.247 18.097 134.119 17.9603C133.996 17.819 133.935 17.6504 133.935 17.4544Z" fill="#331C15"/>
<path d="M132.403 25.7396V26.8128H125.663V25.7396H132.403ZM132.185 17.8167L125.978 26.8128H125.164V25.8284L131.364 16.8597H132.185V17.8167ZM131.624 16.8597V17.9398H125.253V16.8597H131.624Z" fill="#331C15"/>
<path d="M119.08 26.8128H117.815V18.637C117.815 18.1038 117.911 17.6549 118.103 17.2903C118.299 16.9212 118.579 16.6432 118.943 16.4564C119.308 16.265 119.741 16.1693 120.242 16.1693C120.388 16.1693 120.534 16.1784 120.68 16.1966C120.83 16.2148 120.976 16.2422 121.117 16.2786L121.049 17.3109C120.953 17.2881 120.844 17.2721 120.721 17.263C120.602 17.2539 120.484 17.2493 120.365 17.2493C120.096 17.2493 119.864 17.304 119.668 17.4134C119.477 17.5182 119.331 17.6732 119.23 17.8782C119.13 18.0833 119.08 18.3362 119.08 18.637V26.8128ZM120.652 19.4163V20.387H116.646V19.4163H120.652Z" fill="#331C15"/>
<path d="M115.409 21.5218V22.1507C115.409 22.8981 115.316 23.568 115.129 24.1605C114.942 24.7529 114.673 25.2565 114.322 25.6712C113.971 26.0859 113.55 26.4026 113.058 26.6214C112.57 26.8401 112.023 26.9495 111.417 26.9495C110.829 26.9495 110.289 26.8401 109.797 26.6214C109.309 26.4026 108.885 26.0859 108.525 25.6712C108.17 25.2565 107.894 24.7529 107.698 24.1605C107.502 23.568 107.404 22.8981 107.404 22.1507V21.5218C107.404 20.7744 107.5 20.1068 107.691 19.5189C107.887 18.9264 108.163 18.4228 108.519 18.0081C108.874 17.5888 109.296 17.2698 109.783 17.0511C110.275 16.8323 110.815 16.723 111.403 16.723C112.009 16.723 112.556 16.8323 113.044 17.0511C113.536 17.2698 113.958 17.5888 114.309 18.0081C114.664 18.4228 114.935 18.9264 115.122 19.5189C115.313 20.1068 115.409 20.7744 115.409 21.5218ZM114.104 22.1507V21.5081C114.104 20.9157 114.042 20.3916 113.919 19.9359C113.8 19.4801 113.625 19.0973 113.393 18.7874C113.16 18.4775 112.875 18.2428 112.538 18.0833C112.205 17.9238 111.827 17.8441 111.403 17.8441C110.993 17.8441 110.622 17.9238 110.289 18.0833C109.961 18.2428 109.678 18.4775 109.441 18.7874C109.209 19.0973 109.029 19.4801 108.901 19.9359C108.774 20.3916 108.71 20.9157 108.71 21.5081V22.1507C108.71 22.7477 108.774 23.2763 108.901 23.7366C109.029 24.1924 109.211 24.5775 109.448 24.8919C109.69 25.2018 109.975 25.4365 110.303 25.596C110.635 25.7555 111.007 25.8353 111.417 25.8353C111.845 25.8353 112.226 25.7555 112.559 25.596C112.891 25.4365 113.172 25.2018 113.399 24.8919C113.632 24.5775 113.807 24.1924 113.926 23.7366C114.044 23.2763 114.104 22.7477 114.104 22.1507Z" fill="#331C15"/>
<path d="M100.603 20.5784V26.8128H99.3379V19.4163H100.568L100.603 20.5784ZM102.913 19.3753L102.906 20.5511C102.801 20.5283 102.701 20.5146 102.605 20.5101C102.514 20.501 102.41 20.4964 102.291 20.4964C101.999 20.4964 101.742 20.542 101.519 20.6331C101.295 20.7243 101.106 20.8519 100.951 21.0159C100.796 21.18 100.673 21.376 100.582 21.6038C100.495 21.8271 100.438 22.0732 100.411 22.3421L100.056 22.5472C100.056 22.1006 100.099 21.6813 100.186 21.2894C100.277 20.8974 100.416 20.5511 100.603 20.2503C100.789 19.945 101.026 19.708 101.313 19.5394C101.605 19.3662 101.951 19.2796 102.353 19.2796C102.444 19.2796 102.549 19.291 102.667 19.3138C102.785 19.332 102.868 19.3525 102.913 19.3753Z" fill="#331C15"/>
<path d="M94.9834 26.9495C94.4684 26.9495 94.0013 26.8629 93.582 26.6898C93.1673 26.512 92.8096 26.2637 92.5088 25.9446C92.2126 25.6256 91.9847 25.2474 91.8252 24.8099C91.6657 24.3724 91.5859 23.8939 91.5859 23.3743V23.0872C91.5859 22.4857 91.6748 21.9502 91.8525 21.4808C92.0303 21.0068 92.2718 20.6058 92.5771 20.2776C92.8825 19.9495 93.2288 19.7012 93.6162 19.5325C94.0036 19.3639 94.4046 19.2796 94.8193 19.2796C95.348 19.2796 95.8037 19.3707 96.1865 19.553C96.5739 19.7353 96.8906 19.9905 97.1367 20.3187C97.3828 20.6422 97.5651 21.025 97.6836 21.4671C97.8021 21.9046 97.8613 22.3831 97.8613 22.9026V23.47H92.3379V22.4378H96.5967V22.3421C96.5785 22.014 96.5101 21.695 96.3916 21.3851C96.2777 21.0752 96.0954 20.82 95.8447 20.6194C95.5941 20.4189 95.2523 20.3187 94.8193 20.3187C94.5322 20.3187 94.2679 20.3802 94.0264 20.5032C93.7848 20.6217 93.5775 20.7995 93.4043 21.0364C93.2311 21.2734 93.0967 21.5628 93.001 21.9046C92.9053 22.2464 92.8574 22.6406 92.8574 23.0872V23.3743C92.8574 23.7252 92.9053 24.0556 93.001 24.3655C93.1012 24.6709 93.2448 24.9398 93.4316 25.1722C93.623 25.4046 93.8532 25.5869 94.1221 25.7191C94.3955 25.8512 94.7054 25.9173 95.0518 25.9173C95.4984 25.9173 95.8766 25.8262 96.1865 25.6439C96.4964 25.4616 96.7676 25.2178 97 24.9124L97.7656 25.5208C97.6061 25.7623 97.4033 25.9925 97.1572 26.2112C96.9111 26.43 96.6081 26.6077 96.248 26.7444C95.8926 26.8812 95.471 26.9495 94.9834 26.9495Z" fill="#331C15"/>
<path d="M90.4307 19.4163V20.387H86.4316V19.4163H90.4307ZM87.7852 17.6185H89.0498V24.9808C89.0498 25.2314 89.0885 25.4206 89.166 25.5482C89.2435 25.6758 89.3438 25.7601 89.4668 25.8011C89.5898 25.8421 89.722 25.8626 89.8633 25.8626C89.9681 25.8626 90.0775 25.8535 90.1914 25.8353C90.3099 25.8125 90.3988 25.7943 90.458 25.7806L90.4648 26.8128C90.3646 26.8447 90.2324 26.8743 90.0684 26.9017C89.9089 26.9336 89.7152 26.9495 89.4873 26.9495C89.1774 26.9495 88.8926 26.888 88.6328 26.765C88.373 26.6419 88.1657 26.4368 88.0107 26.1497C87.8604 25.8581 87.7852 25.4661 87.7852 24.9739V17.6185Z" fill="#331C15"/>
<path d="M80.8877 16.3128V26.8128H79.623V16.3128H80.8877ZM80.5869 22.8343L80.0605 22.8138C80.0651 22.3079 80.1403 21.8408 80.2861 21.4124C80.432 20.9795 80.637 20.6035 80.9014 20.2845C81.1657 19.9655 81.4801 19.7194 81.8447 19.5462C82.2139 19.3685 82.6217 19.2796 83.0684 19.2796C83.4329 19.2796 83.7611 19.3297 84.0527 19.43C84.3444 19.5257 84.5928 19.6806 84.7979 19.8948C85.0075 20.109 85.167 20.387 85.2764 20.7288C85.3857 21.0661 85.4404 21.4785 85.4404 21.9661V26.8128H84.1689V21.9525C84.1689 21.5651 84.112 21.2552 83.998 21.0228C83.8841 20.7858 83.7178 20.6149 83.499 20.5101C83.2803 20.4007 83.0114 20.346 82.6924 20.346C82.3779 20.346 82.0908 20.4121 81.8311 20.5443C81.5758 20.6764 81.3548 20.8587 81.168 21.0911C80.9857 21.3235 80.8421 21.5901 80.7373 21.8909C80.637 22.1872 80.5869 22.5016 80.5869 22.8343Z" fill="#331C15"/>
<path d="M76.5537 19.4163H77.7021V26.6556C77.7021 27.3073 77.57 27.8633 77.3057 28.3235C77.0413 28.7838 76.6722 29.1325 76.1982 29.3694C75.7288 29.611 75.1865 29.7318 74.5713 29.7318C74.3161 29.7318 74.0153 29.6907 73.6689 29.6087C73.3271 29.5312 72.9899 29.3968 72.6572 29.2054C72.3291 29.0185 72.0534 28.7656 71.8301 28.4466L72.4932 27.6946C72.8031 28.0683 73.1266 28.3281 73.4639 28.4739C73.8057 28.6198 74.1429 28.6927 74.4756 28.6927C74.8766 28.6927 75.223 28.6175 75.5146 28.4671C75.8063 28.3167 76.0319 28.0934 76.1914 27.7972C76.3555 27.5055 76.4375 27.1455 76.4375 26.7171V21.0433L76.5537 19.4163ZM71.4609 23.1966V23.053C71.4609 22.4879 71.527 21.9752 71.6592 21.515C71.7959 21.0501 71.9896 20.6513 72.2402 20.3187C72.4954 19.986 72.8031 19.7308 73.1631 19.553C73.5231 19.3707 73.9287 19.2796 74.3799 19.2796C74.8447 19.2796 75.2503 19.3616 75.5967 19.5257C75.9476 19.6852 76.2438 19.9199 76.4854 20.2298C76.7314 20.5351 76.9251 20.9043 77.0664 21.3372C77.2077 21.7702 77.3057 22.2601 77.3604 22.8069V23.4359C77.3102 23.9782 77.2122 24.4658 77.0664 24.8987C76.9251 25.3317 76.7314 25.7008 76.4854 26.0062C76.2438 26.3115 75.9476 26.5462 75.5967 26.7103C75.2458 26.8698 74.8356 26.9495 74.3662 26.9495C73.9242 26.9495 73.5231 26.8561 73.1631 26.6693C72.8076 26.4824 72.5023 26.2204 72.2471 25.8831C71.9919 25.5459 71.7959 25.1494 71.6592 24.6937C71.527 24.2334 71.4609 23.7344 71.4609 23.1966ZM72.7256 23.053V23.1966C72.7256 23.5657 72.762 23.9121 72.835 24.2357C72.9124 24.5592 73.0286 24.8441 73.1836 25.0901C73.3431 25.3362 73.5459 25.5299 73.792 25.6712C74.0381 25.8079 74.332 25.8763 74.6738 25.8763C75.0931 25.8763 75.4395 25.7874 75.7129 25.6097C75.9863 25.4319 76.2028 25.1972 76.3623 24.9056C76.5264 24.6139 76.654 24.2972 76.7451 23.9554V22.3079C76.695 22.0573 76.6175 21.8157 76.5127 21.5833C76.4124 21.3463 76.2803 21.1367 76.1162 20.9544C75.9567 20.7676 75.7585 20.6194 75.5215 20.5101C75.2845 20.4007 75.0065 20.346 74.6875 20.346C74.3411 20.346 74.0426 20.4189 73.792 20.5648C73.5459 20.706 73.3431 20.902 73.1836 21.1526C73.0286 21.3987 72.9124 21.6859 72.835 22.014C72.762 22.3375 72.7256 22.6839 72.7256 23.053Z" fill="#331C15"/>
<path d="M68.5625 25.1038V19.4163H69.834V26.8128H68.624L68.5625 25.1038ZM68.8018 23.5452L69.3281 23.5316C69.3281 24.0237 69.2757 24.4795 69.1709 24.8987C69.0706 25.3135 68.9066 25.6735 68.6787 25.9788C68.4508 26.2842 68.1523 26.5234 67.7832 26.6966C67.4141 26.8652 66.9652 26.9495 66.4365 26.9495C66.0765 26.9495 65.7461 26.8971 65.4453 26.7923C65.1491 26.6875 64.8939 26.5257 64.6797 26.3069C64.4655 26.0882 64.2992 25.8034 64.1807 25.4525C64.0667 25.1015 64.0098 24.68 64.0098 24.1878V19.4163H65.2744V24.2015C65.2744 24.5342 65.3109 24.8099 65.3838 25.0286C65.4613 25.2428 65.5638 25.4137 65.6914 25.5413C65.8236 25.6644 65.9694 25.751 66.1289 25.8011C66.293 25.8512 66.4616 25.8763 66.6348 25.8763C67.1725 25.8763 67.5986 25.7737 67.9131 25.5687C68.2275 25.359 68.4531 25.0788 68.5898 24.7278C68.7311 24.3724 68.8018 23.9782 68.8018 23.5452Z" fill="#331C15"/>
<path d="M60.7832 25.5482V21.7405C60.7832 21.4489 60.724 21.1959 60.6055 20.9818C60.4915 20.763 60.3184 20.5944 60.0859 20.4759C59.8535 20.3574 59.5664 20.2982 59.2246 20.2982C58.9056 20.2982 58.6253 20.3528 58.3838 20.4622C58.1468 20.5716 57.96 20.7151 57.8232 20.8929C57.6911 21.0706 57.625 21.262 57.625 21.4671H56.3604C56.3604 21.2028 56.4287 20.9407 56.5654 20.681C56.7021 20.4212 56.8981 20.1865 57.1533 19.9769C57.4131 19.7627 57.723 19.5941 58.083 19.471C58.4476 19.3434 58.8532 19.2796 59.2998 19.2796C59.8376 19.2796 60.3115 19.3707 60.7217 19.553C61.1364 19.7353 61.46 20.011 61.6924 20.3802C61.9294 20.7448 62.0479 21.2028 62.0479 21.7542V25.1995C62.0479 25.4456 62.0684 25.7077 62.1094 25.9857C62.1549 26.2637 62.221 26.5029 62.3076 26.7034V26.8128H60.9883C60.9245 26.667 60.8743 26.4733 60.8379 26.2318C60.8014 25.9857 60.7832 25.7578 60.7832 25.5482ZM61.002 22.3284L61.0156 23.2171H59.7373C59.3773 23.2171 59.056 23.2467 58.7734 23.306C58.4909 23.3607 58.2539 23.445 58.0625 23.5589C57.8711 23.6728 57.7253 23.8164 57.625 23.9896C57.5247 24.1582 57.4746 24.3564 57.4746 24.5843C57.4746 24.8167 57.527 25.0286 57.6318 25.22C57.7367 25.4114 57.8939 25.5641 58.1035 25.678C58.3177 25.7874 58.5798 25.8421 58.8896 25.8421C59.277 25.8421 59.6188 25.7601 59.915 25.596C60.2113 25.4319 60.446 25.2314 60.6191 24.9944C60.7969 24.7575 60.8926 24.5273 60.9062 24.304L61.4463 24.9124C61.4144 25.1038 61.3278 25.3157 61.1865 25.5482C61.0452 25.7806 60.8561 26.0039 60.6191 26.2181C60.3867 26.4277 60.1087 26.6032 59.7852 26.7444C59.4661 26.8812 59.1061 26.9495 58.7051 26.9495C58.2038 26.9495 57.764 26.8515 57.3857 26.6556C57.012 26.4596 56.7204 26.1976 56.5107 25.8694C56.3057 25.5368 56.2031 25.1653 56.2031 24.7552C56.2031 24.3587 56.2806 24.0101 56.4355 23.7093C56.5905 23.404 56.8138 23.151 57.1055 22.9505C57.3971 22.7454 57.748 22.5905 58.1582 22.4857C58.5684 22.3808 59.0264 22.3284 59.5322 22.3284H61.002Z" fill="#331C15"/>
<path d="M50.1191 26.8128H48.041L48.0547 25.7396H50.1191C50.8301 25.7396 51.4225 25.5915 51.8965 25.2952C52.3704 24.9944 52.7259 24.5752 52.9629 24.0374C53.2044 23.4951 53.3252 22.8616 53.3252 22.137V21.5286C53.3252 20.959 53.2568 20.4531 53.1201 20.011C52.9834 19.5644 52.7829 19.1885 52.5186 18.8831C52.2542 18.5732 51.9307 18.3385 51.5479 18.179C51.1696 18.0195 50.7344 17.9398 50.2422 17.9398H48V16.8597H50.2422C50.8939 16.8597 51.4886 16.9691 52.0264 17.1878C52.5641 17.402 53.0267 17.7142 53.4141 18.1243C53.806 18.5299 54.1068 19.0221 54.3164 19.6009C54.526 20.1751 54.6309 20.8222 54.6309 21.5423V22.137C54.6309 22.8571 54.526 23.5065 54.3164 24.0853C54.1068 24.6595 53.8037 25.1494 53.4072 25.555C53.0153 25.9606 52.5413 26.2728 51.9854 26.4915C51.4339 26.7057 50.8118 26.8128 50.1191 26.8128ZM48.7451 16.8597V26.8128H47.4258V16.8597H48.7451Z" fill="#331C15"/>
<path d="M39.209 26.0472L41.2666 19.4163H42.6201L39.6533 27.9544C39.585 28.1367 39.4938 28.3327 39.3799 28.5423C39.2705 28.7565 39.1292 28.9593 38.9561 29.1507C38.7829 29.3421 38.5732 29.4971 38.3271 29.6155C38.0856 29.7386 37.7962 29.8001 37.459 29.8001C37.3587 29.8001 37.2311 29.7864 37.0762 29.7591C36.9212 29.7318 36.8118 29.709 36.748 29.6907L36.7412 28.6653C36.7777 28.6699 36.8346 28.6745 36.9121 28.679C36.9941 28.6881 37.0511 28.6927 37.083 28.6927C37.3701 28.6927 37.6139 28.654 37.8145 28.5765C38.015 28.5036 38.1836 28.3782 38.3203 28.2005C38.4616 28.0273 38.5824 27.7881 38.6826 27.4827L39.209 26.0472ZM37.6982 19.4163L39.6191 25.1585L39.9473 26.4915L39.0381 26.9564L36.3174 19.4163H37.6982Z" fill="#331C15"/>
<path d="M35.6475 19.4163V20.387H31.6484V19.4163H35.6475ZM33.002 17.6185H34.2666V24.9808C34.2666 25.2314 34.3053 25.4206 34.3828 25.5482C34.4603 25.6758 34.5605 25.7601 34.6836 25.8011C34.8066 25.8421 34.9388 25.8626 35.0801 25.8626C35.1849 25.8626 35.2943 25.8535 35.4082 25.8353C35.5267 25.8125 35.6156 25.7943 35.6748 25.7806L35.6816 26.8128C35.5814 26.8447 35.4492 26.8743 35.2852 26.9017C35.1257 26.9336 34.932 26.9495 34.7041 26.9495C34.3942 26.9495 34.1094 26.888 33.8496 26.765C33.5898 26.6419 33.3825 26.4368 33.2275 26.1497C33.0771 25.8581 33.002 25.4661 33.002 24.9739V17.6185Z" fill="#331C15"/>
<path d="M29.3516 25.1038V19.4163H30.623V26.8128H29.4131L29.3516 25.1038ZM29.5908 23.5452L30.1172 23.5316C30.1172 24.0237 30.0648 24.4795 29.96 24.8987C29.8597 25.3135 29.6956 25.6735 29.4678 25.9788C29.2399 26.2842 28.9414 26.5234 28.5723 26.6966C28.2031 26.8652 27.7542 26.9495 27.2256 26.9495C26.8656 26.9495 26.5352 26.8971 26.2344 26.7923C25.9382 26.6875 25.6829 26.5257 25.4688 26.3069C25.2546 26.0882 25.0882 25.8034 24.9697 25.4525C24.8558 25.1015 24.7988 24.68 24.7988 24.1878V19.4163H26.0635V24.2015C26.0635 24.5342 26.0999 24.8099 26.1729 25.0286C26.2503 25.2428 26.3529 25.4137 26.4805 25.5413C26.6126 25.6644 26.7585 25.751 26.918 25.8011C27.082 25.8512 27.2507 25.8763 27.4238 25.8763C27.9616 25.8763 28.3877 25.7737 28.7021 25.5687C29.0166 25.359 29.2422 25.0788 29.3789 24.7278C29.5202 24.3724 29.5908 23.9782 29.5908 23.5452Z" fill="#331C15"/>
<path d="M21.5723 25.5482V21.7405C21.5723 21.4489 21.513 21.1959 21.3945 20.9818C21.2806 20.763 21.1074 20.5944 20.875 20.4759C20.6426 20.3574 20.3555 20.2982 20.0137 20.2982C19.6947 20.2982 19.4144 20.3528 19.1729 20.4622C18.9359 20.5716 18.749 20.7151 18.6123 20.8929C18.4801 21.0706 18.4141 21.262 18.4141 21.4671H17.1494C17.1494 21.2028 17.2178 20.9407 17.3545 20.681C17.4912 20.4212 17.6872 20.1865 17.9424 19.9769C18.2021 19.7627 18.512 19.5941 18.8721 19.471C19.2367 19.3434 19.6423 19.2796 20.0889 19.2796C20.6266 19.2796 21.1006 19.3707 21.5107 19.553C21.9255 19.7353 22.249 20.011 22.4814 20.3802C22.7184 20.7448 22.8369 21.2028 22.8369 21.7542V25.1995C22.8369 25.4456 22.8574 25.7077 22.8984 25.9857C22.944 26.2637 23.0101 26.5029 23.0967 26.7034V26.8128H21.7773C21.7135 26.667 21.6634 26.4733 21.627 26.2318C21.5905 25.9857 21.5723 25.7578 21.5723 25.5482ZM21.791 22.3284L21.8047 23.2171H20.5264C20.1663 23.2171 19.8451 23.2467 19.5625 23.306C19.2799 23.3607 19.043 23.445 18.8516 23.5589C18.6602 23.6728 18.5143 23.8164 18.4141 23.9896C18.3138 24.1582 18.2637 24.3564 18.2637 24.5843C18.2637 24.8167 18.3161 25.0286 18.4209 25.22C18.5257 25.4114 18.6829 25.5641 18.8926 25.678C19.1068 25.7874 19.3688 25.8421 19.6787 25.8421C20.0661 25.8421 20.4079 25.7601 20.7041 25.596C21.0003 25.4319 21.235 25.2314 21.4082 24.9944C21.5859 24.7575 21.6816 24.5273 21.6953 24.304L22.2354 24.9124C22.2035 25.1038 22.1169 25.3157 21.9756 25.5482C21.8343 25.7806 21.6452 26.0039 21.4082 26.2181C21.1758 26.4277 20.8978 26.6032 20.5742 26.7444C20.2552 26.8812 19.8952 26.9495 19.4941 26.9495C18.9928 26.9495 18.5531 26.8515 18.1748 26.6556C17.8011 26.4596 17.5094 26.1976 17.2998 25.8694C17.0947 25.5368 16.9922 25.1653 16.9922 24.7552C16.9922 24.3587 17.0697 24.0101 17.2246 23.7093C17.3796 23.404 17.6029 23.151 17.8945 22.9505C18.1862 22.7454 18.5371 22.5905 18.9473 22.4857C19.3574 22.3808 19.8154 22.3284 20.3213 22.3284H21.791Z" fill="#331C15"/>
<path d="M12.8564 26.9495C12.3415 26.9495 11.8743 26.8629 11.4551 26.6898C11.0404 26.512 10.6826 26.2637 10.3818 25.9446C10.0856 25.6256 9.85775 25.2474 9.69824 24.8099C9.53874 24.3724 9.45898 23.8939 9.45898 23.3743V23.0872C9.45898 22.4857 9.54785 21.9502 9.72559 21.4808C9.90332 21.0068 10.1449 20.6058 10.4502 20.2776C10.7555 19.9495 11.1019 19.7012 11.4893 19.5325C11.8766 19.3639 12.2777 19.2796 12.6924 19.2796C13.221 19.2796 13.6768 19.3707 14.0596 19.553C14.4469 19.7353 14.7637 19.9905 15.0098 20.3187C15.2559 20.6422 15.4382 21.025 15.5566 21.4671C15.6751 21.9046 15.7344 22.3831 15.7344 22.9026V23.47H10.2109V22.4378H14.4697V22.3421C14.4515 22.014 14.3831 21.695 14.2646 21.3851C14.1507 21.0752 13.9684 20.82 13.7178 20.6194C13.4671 20.4189 13.1253 20.3187 12.6924 20.3187C12.4053 20.3187 12.141 20.3802 11.8994 20.5032C11.6579 20.6217 11.4505 20.7995 11.2773 21.0364C11.1042 21.2734 10.9697 21.5628 10.874 21.9046C10.7783 22.2464 10.7305 22.6406 10.7305 23.0872V23.3743C10.7305 23.7252 10.7783 24.0556 10.874 24.3655C10.9743 24.6709 11.1178 24.9398 11.3047 25.1722C11.4961 25.4046 11.7262 25.5869 11.9951 25.7191C12.2686 25.8512 12.5785 25.9173 12.9248 25.9173C13.3714 25.9173 13.7497 25.8262 14.0596 25.6439C14.3695 25.4616 14.6406 25.2178 14.873 24.9124L15.6387 25.5208C15.4792 25.7623 15.2764 25.9925 15.0303 26.2112C14.7842 26.43 14.4811 26.6077 14.1211 26.7444C13.7656 26.8812 13.3441 26.9495 12.8564 26.9495Z" fill="#331C15"/>
<path d="M4.80371 22.1575H2.28125L2.26758 21.098H4.55762C4.93587 21.098 5.26628 21.0342 5.54883 20.9066C5.83138 20.779 6.05013 20.5967 6.20508 20.3597C6.36458 20.1181 6.44434 19.831 6.44434 19.4984C6.44434 19.1338 6.3737 18.8375 6.23242 18.6097C6.0957 18.3773 5.88379 18.2086 5.59668 18.1038C5.31413 17.9944 4.9541 17.9398 4.5166 17.9398H2.5752V26.8128H1.25586V16.8597H4.5166C5.02702 16.8597 5.48275 16.9121 5.88379 17.0169C6.28483 17.1172 6.62435 17.2767 6.90234 17.4954C7.1849 17.7096 7.39909 17.9831 7.54492 18.3157C7.69076 18.6484 7.76367 19.0472 7.76367 19.512C7.76367 19.9222 7.65885 20.2936 7.44922 20.6263C7.23958 20.9544 6.94792 21.2233 6.57422 21.4329C6.20508 21.6426 5.77214 21.777 5.27539 21.8362L4.80371 22.1575ZM4.74219 26.8128H1.76172L2.50684 25.7396H4.74219C5.16146 25.7396 5.51693 25.6666 5.80859 25.5208C6.10482 25.375 6.3304 25.1699 6.48535 24.9056C6.6403 24.6367 6.71777 24.32 6.71777 23.9554C6.71777 23.5862 6.65169 23.2672 6.51953 22.9984C6.38737 22.7295 6.18001 22.5221 5.89746 22.3763C5.61491 22.2304 5.25033 22.1575 4.80371 22.1575H2.92383L2.9375 21.098H5.50781L5.78809 21.4808C6.2666 21.5218 6.6722 21.6585 7.00488 21.8909C7.33756 22.1188 7.59049 22.4105 7.76367 22.7659C7.94141 23.1214 8.03027 23.5133 8.03027 23.9417C8.03027 24.5615 7.89355 25.0856 7.62012 25.514C7.35124 25.9378 6.9707 26.2614 6.47852 26.4847C5.98633 26.7034 5.40755 26.8128 4.74219 26.8128Z" fill="#331C15"/>
<path d="M235.503 3.41632H236.651V10.6556C236.651 11.3073 236.519 11.8633 236.255 12.3235C235.991 12.7838 235.621 13.1325 235.147 13.3694C234.678 13.611 234.136 13.7318 233.521 13.7318C233.265 13.7318 232.965 13.6907 232.618 13.6087C232.276 13.5312 231.939 13.3968 231.606 13.2054C231.278 13.0185 231.003 12.7656 230.779 12.4466L231.442 11.6946C231.752 12.0683 232.076 12.3281 232.413 12.4739C232.755 12.6198 233.092 12.6927 233.425 12.6927C233.826 12.6927 234.172 12.6175 234.464 12.4671C234.756 12.3167 234.981 12.0934 235.141 11.7972C235.305 11.5055 235.387 11.1455 235.387 10.7171V5.04327L235.503 3.41632ZM230.41 7.19659V7.05304C230.41 6.48794 230.476 5.97524 230.608 5.51495C230.745 5.05011 230.939 4.65135 231.189 4.31866C231.445 3.98598 231.752 3.73077 232.112 3.55304C232.472 3.37075 232.878 3.2796 233.329 3.2796C233.794 3.2796 234.2 3.36163 234.546 3.5257C234.897 3.6852 235.193 3.9199 235.435 4.2298C235.681 4.53514 235.874 4.90428 236.016 5.33722C236.157 5.77016 236.255 6.26007 236.31 6.80695V7.43585C236.259 7.97817 236.161 8.4658 236.016 8.89874C235.874 9.33169 235.681 9.70083 235.435 10.0062C235.193 10.3115 234.897 10.5462 234.546 10.7103C234.195 10.8698 233.785 10.9495 233.315 10.9495C232.873 10.9495 232.472 10.8561 232.112 10.6693C231.757 10.4824 231.451 10.2204 231.196 9.88312C230.941 9.54588 230.745 9.14939 230.608 8.69366C230.476 8.23338 230.41 7.73435 230.41 7.19659ZM231.675 7.05304V7.19659C231.675 7.56573 231.711 7.91209 231.784 8.23566C231.862 8.55922 231.978 8.84406 232.133 9.09015C232.292 9.33624 232.495 9.52993 232.741 9.6712C232.987 9.80792 233.281 9.87628 233.623 9.87628C234.042 9.87628 234.389 9.78741 234.662 9.60968C234.936 9.43195 235.152 9.19725 235.312 8.90558C235.476 8.61391 235.603 8.29718 235.694 7.95538V6.30792C235.644 6.05727 235.567 5.81573 235.462 5.58331C235.362 5.34633 235.229 5.1367 235.065 4.95441C234.906 4.76756 234.708 4.61945 234.471 4.51007C234.234 4.4007 233.956 4.34601 233.637 4.34601C233.29 4.34601 232.992 4.41892 232.741 4.56476C232.495 4.70603 232.292 4.902 232.133 5.15265C231.978 5.39874 231.862 5.68585 231.784 6.01398C231.711 6.33754 231.675 6.6839 231.675 7.05304Z" fill="#331C15"/>
<path d="M224.237 4.99542V10.8128H222.973V3.41632H224.169L224.237 4.99542ZM223.937 6.83429L223.41 6.81378C223.415 6.30792 223.49 5.8408 223.636 5.41241C223.782 4.97947 223.987 4.6035 224.251 4.28448C224.515 3.96547 224.83 3.71938 225.194 3.5462C225.563 3.36847 225.971 3.2796 226.418 3.2796C226.783 3.2796 227.111 3.32973 227.402 3.42999C227.694 3.5257 227.942 3.68064 228.147 3.89484C228.357 4.10903 228.517 4.38702 228.626 4.72882C228.735 5.06606 228.79 5.4785 228.79 5.96613V10.8128H227.519V5.95245C227.519 5.56508 227.462 5.25519 227.348 5.02277C227.234 4.78579 227.067 4.61489 226.849 4.51007C226.63 4.4007 226.361 4.34601 226.042 4.34601C225.728 4.34601 225.44 4.41209 225.181 4.54425C224.925 4.67641 224.704 4.8587 224.518 5.09113C224.335 5.32355 224.192 5.59015 224.087 5.89093C223.987 6.18715 223.937 6.50161 223.937 6.83429Z" fill="#331C15"/>
<path d="M220.942 3.41632V10.8128H219.671V3.41632H220.942ZM219.575 1.45441C219.575 1.24933 219.637 1.07615 219.76 0.934875C219.887 0.793599 220.074 0.722961 220.32 0.722961C220.562 0.722961 220.746 0.793599 220.874 0.934875C221.006 1.07615 221.072 1.24933 221.072 1.45441C221.072 1.65037 221.006 1.81899 220.874 1.96027C220.746 2.09698 220.562 2.16534 220.32 2.16534C220.074 2.16534 219.887 2.09698 219.76 1.96027C219.637 1.81899 219.575 1.65037 219.575 1.45441Z" fill="#331C15"/>
<path d="M216.328 9.37726V0.312805H217.6V10.8128H216.438L216.328 9.37726ZM211.352 7.19659V7.05304C211.352 6.48794 211.42 5.97524 211.557 5.51495C211.698 5.05011 211.896 4.65135 212.151 4.31866C212.411 3.98598 212.719 3.73077 213.074 3.55304C213.434 3.37075 213.835 3.2796 214.277 3.2796C214.742 3.2796 215.148 3.36163 215.494 3.5257C215.845 3.6852 216.141 3.9199 216.383 4.2298C216.629 4.53514 216.823 4.90428 216.964 5.33722C217.105 5.77016 217.203 6.26007 217.258 6.80695V7.43585C217.208 7.97817 217.11 8.4658 216.964 8.89874C216.823 9.33169 216.629 9.70083 216.383 10.0062C216.141 10.3115 215.845 10.5462 215.494 10.7103C215.143 10.8698 214.733 10.9495 214.264 10.9495C213.831 10.9495 213.434 10.8561 213.074 10.6693C212.719 10.4824 212.411 10.2204 212.151 9.88312C211.896 9.54588 211.698 9.14939 211.557 8.69366C211.42 8.23338 211.352 7.73435 211.352 7.19659ZM212.623 7.05304V7.19659C212.623 7.56573 212.66 7.91209 212.732 8.23566C212.81 8.55922 212.928 8.84406 213.088 9.09015C213.247 9.33624 213.45 9.52993 213.696 9.6712C213.942 9.80792 214.236 9.87628 214.578 9.87628C214.997 9.87628 215.341 9.78741 215.61 9.60968C215.884 9.43195 216.103 9.19725 216.267 8.90558C216.431 8.61391 216.558 8.29718 216.649 7.95538V6.30792C216.595 6.05727 216.515 5.81573 216.41 5.58331C216.31 5.34633 216.178 5.1367 216.014 4.95441C215.854 4.76756 215.656 4.61945 215.419 4.51007C215.187 4.4007 214.911 4.34601 214.592 4.34601C214.245 4.34601 213.947 4.41892 213.696 4.56476C213.45 4.70603 213.247 4.902 213.088 5.15265C212.928 5.39874 212.81 5.68585 212.732 6.01398C212.66 6.33754 212.623 6.6839 212.623 7.05304Z" fill="#331C15"/>
<path d="M208.412 9.54816V5.74054C208.412 5.44887 208.353 5.19594 208.234 4.98175C208.12 4.763 207.947 4.59438 207.715 4.47589C207.482 4.3574 207.195 4.29816 206.854 4.29816C206.535 4.29816 206.254 4.35284 206.013 4.46222C205.776 4.57159 205.589 4.71515 205.452 4.89288C205.32 5.07062 205.254 5.26202 205.254 5.4671H203.989C203.989 5.20278 204.058 4.94073 204.194 4.68097C204.331 4.4212 204.527 4.1865 204.782 3.97687C205.042 3.76267 205.352 3.59406 205.712 3.47101C206.076 3.3434 206.482 3.2796 206.929 3.2796C207.466 3.2796 207.94 3.37075 208.351 3.55304C208.765 3.73533 209.089 4.01105 209.321 4.38019C209.558 4.74477 209.677 5.20278 209.677 5.75421V9.19952C209.677 9.44562 209.697 9.70766 209.738 9.98566C209.784 10.2637 209.85 10.5029 209.937 10.7034V10.8128H208.617C208.553 10.667 208.503 10.4733 208.467 10.2318C208.43 9.98566 208.412 9.75779 208.412 9.54816ZM208.631 6.32843L208.645 7.2171H207.366C207.006 7.2171 206.685 7.24672 206.402 7.30597C206.12 7.36066 205.883 7.44497 205.691 7.5589C205.5 7.67283 205.354 7.81639 205.254 7.98956C205.154 8.15818 205.104 8.35642 205.104 8.58429C205.104 8.81671 205.156 9.02863 205.261 9.22003C205.366 9.41144 205.523 9.56411 205.732 9.67804C205.947 9.78741 206.209 9.8421 206.519 9.8421C206.906 9.8421 207.248 9.76007 207.544 9.59601C207.84 9.43195 208.075 9.23142 208.248 8.99445C208.426 8.75747 208.521 8.52732 208.535 8.30402L209.075 8.91241C209.043 9.10382 208.957 9.31573 208.815 9.54816C208.674 9.78058 208.485 10.0039 208.248 10.2181C208.016 10.4277 207.738 10.6032 207.414 10.7444C207.095 10.8812 206.735 10.9495 206.334 10.9495C205.833 10.9495 205.393 10.8515 205.015 10.6556C204.641 10.4596 204.349 10.1976 204.14 9.86945C203.935 9.53676 203.832 9.16534 203.832 8.75519C203.832 8.3587 203.91 8.01007 204.064 7.70929C204.219 7.40395 204.443 7.15102 204.734 6.9505C205.026 6.74542 205.377 6.59047 205.787 6.48566C206.197 6.38084 206.655 6.32843 207.161 6.32843H208.631Z" fill="#331C15"/>
<path d="M201.07 10.8128H199.806V2.63702C199.806 2.10382 199.901 1.65493 200.093 1.29034C200.289 0.921204 200.569 0.643209 200.934 0.45636C201.298 0.264954 201.731 0.16925 202.232 0.16925C202.378 0.16925 202.524 0.178365 202.67 0.196594C202.82 0.214823 202.966 0.242167 203.107 0.278625L203.039 1.31085C202.943 1.28807 202.834 1.27212 202.711 1.263C202.592 1.25389 202.474 1.24933 202.355 1.24933C202.087 1.24933 201.854 1.30402 201.658 1.41339C201.467 1.51821 201.321 1.67316 201.221 1.87823C201.12 2.08331 201.07 2.33624 201.07 2.63702V10.8128ZM202.643 3.41632V4.38702H198.637V3.41632H202.643Z" fill="#331C15"/>
<path d="M192.71 4.99542V10.8128H191.445V3.41632H192.642L192.71 4.99542ZM192.409 6.83429L191.883 6.81378C191.887 6.30792 191.963 5.8408 192.108 5.41241C192.254 4.97947 192.459 4.6035 192.724 4.28448C192.988 3.96547 193.302 3.71938 193.667 3.5462C194.036 3.36847 194.444 3.2796 194.891 3.2796C195.255 3.2796 195.583 3.32973 195.875 3.42999C196.167 3.5257 196.415 3.68064 196.62 3.89484C196.83 4.10903 196.989 4.38702 197.099 4.72882C197.208 5.06606 197.263 5.4785 197.263 5.96613V10.8128H195.991V5.95245C195.991 5.56508 195.934 5.25519 195.82 5.02277C195.706 4.78579 195.54 4.61489 195.321 4.51007C195.103 4.4007 194.834 4.34601 194.515 4.34601C194.2 4.34601 193.913 4.41209 193.653 4.54425C193.398 4.67641 193.177 4.8587 192.99 5.09113C192.808 5.32355 192.664 5.59015 192.56 5.89093C192.459 6.18715 192.409 6.50161 192.409 6.83429Z" fill="#331C15"/>
<path d="M188.253 0.85968H189.565V7.59308C189.565 8.34047 189.399 8.96254 189.066 9.45929C188.734 9.95603 188.292 10.3297 187.74 10.5804C187.193 10.8265 186.599 10.9495 185.956 10.9495C185.282 10.9495 184.671 10.8265 184.124 10.5804C183.582 10.3297 183.151 9.95603 182.832 9.45929C182.518 8.96254 182.36 8.34047 182.36 7.59308V0.85968H183.666V7.59308C183.666 8.11261 183.762 8.541 183.953 8.87823C184.145 9.21547 184.411 9.46613 184.753 9.63019C185.099 9.79425 185.5 9.87628 185.956 9.87628C186.416 9.87628 186.817 9.79425 187.159 9.63019C187.506 9.46613 187.774 9.21547 187.966 8.87823C188.157 8.541 188.253 8.11261 188.253 7.59308V0.85968Z" fill="#331C15"/>
<path d="M175.415 4.57843V10.8128H174.15V3.41632H175.381L175.415 4.57843ZM177.726 3.37531L177.719 4.55109C177.614 4.5283 177.514 4.51463 177.418 4.51007C177.327 4.50096 177.222 4.4964 177.104 4.4964C176.812 4.4964 176.554 4.54197 176.331 4.63312C176.108 4.72426 175.919 4.85187 175.764 5.01593C175.609 5.17999 175.486 5.37596 175.395 5.60382C175.308 5.82713 175.251 6.07322 175.224 6.3421L174.868 6.54718C174.868 6.10057 174.911 5.68129 174.998 5.28937C175.089 4.89744 175.228 4.55109 175.415 4.25031C175.602 3.94497 175.839 3.70799 176.126 3.53937C176.418 3.36619 176.764 3.2796 177.165 3.2796C177.256 3.2796 177.361 3.291 177.479 3.31378C177.598 3.33201 177.68 3.35252 177.726 3.37531Z" fill="#331C15"/>
<path d="M170.951 9.10382V3.41632H172.223V10.8128H171.013L170.951 9.10382ZM171.19 7.54523L171.717 7.53156C171.717 8.02374 171.664 8.47947 171.56 8.89874C171.459 9.31346 171.295 9.67348 171.067 9.97882C170.84 10.2842 170.541 10.5234 170.172 10.6966C169.803 10.8652 169.354 10.9495 168.825 10.9495C168.465 10.9495 168.135 10.8971 167.834 10.7923C167.538 10.6875 167.283 10.5257 167.068 10.3069C166.854 10.0882 166.688 9.80337 166.569 9.45245C166.455 9.10154 166.398 8.67999 166.398 8.18781V3.41632H167.663V8.20148C167.663 8.53416 167.7 8.80988 167.772 9.02863C167.85 9.24282 167.952 9.41372 168.08 9.54132C168.212 9.66437 168.358 9.75096 168.518 9.80109C168.682 9.85122 168.85 9.87628 169.023 9.87628C169.561 9.87628 169.987 9.77374 170.302 9.56866C170.616 9.35903 170.842 9.07876 170.979 8.72784C171.12 8.37238 171.19 7.97817 171.19 7.54523Z" fill="#331C15"/>
<path d="M158.106 7.19659V7.03937C158.106 6.50616 158.184 6.0117 158.339 5.55597C158.494 5.09568 158.717 4.69692 159.009 4.35968C159.3 4.01788 159.654 3.75356 160.068 3.56671C160.483 3.37531 160.948 3.2796 161.463 3.2796C161.982 3.2796 162.45 3.37531 162.864 3.56671C163.284 3.75356 163.639 4.01788 163.931 4.35968C164.227 4.69692 164.452 5.09568 164.607 5.55597C164.762 6.0117 164.84 6.50616 164.84 7.03937V7.19659C164.84 7.7298 164.762 8.22426 164.607 8.67999C164.452 9.13572 164.227 9.53448 163.931 9.87628C163.639 10.2135 163.286 10.4778 162.871 10.6693C162.461 10.8561 161.996 10.9495 161.477 10.9495C160.957 10.9495 160.49 10.8561 160.075 10.6693C159.66 10.4778 159.305 10.2135 159.009 9.87628C158.717 9.53448 158.494 9.13572 158.339 8.67999C158.184 8.22426 158.106 7.7298 158.106 7.19659ZM159.371 7.03937V7.19659C159.371 7.56573 159.414 7.91437 159.501 8.24249C159.588 8.56606 159.717 8.85317 159.891 9.10382C160.068 9.35447 160.289 9.55271 160.554 9.69855C160.818 9.83982 161.126 9.91046 161.477 9.91046C161.823 9.91046 162.126 9.83982 162.386 9.69855C162.65 9.55271 162.869 9.35447 163.042 9.10382C163.215 8.85317 163.345 8.56606 163.432 8.24249C163.523 7.91437 163.568 7.56573 163.568 7.19659V7.03937C163.568 6.67478 163.523 6.33071 163.432 6.00714C163.345 5.67902 163.213 5.38963 163.035 5.13898C162.862 4.88377 162.643 4.68325 162.379 4.53741C162.119 4.39158 161.814 4.31866 161.463 4.31866C161.117 4.31866 160.811 4.39158 160.547 4.53741C160.287 4.68325 160.068 4.88377 159.891 5.13898C159.717 5.38963 159.588 5.67902 159.501 6.00714C159.414 6.33071 159.371 6.67478 159.371 7.03937Z" fill="#331C15"/>
<path d="M151.134 0.85968L153.718 5.85675L156.309 0.85968H157.806L154.374 7.09406V10.8128H153.055V7.09406L149.623 0.85968H151.134Z" fill="#331C15"/>
<path d="M142.657 10.9495C142.142 10.9495 141.675 10.8629 141.256 10.6898C140.841 10.512 140.483 10.2637 140.183 9.94464C139.886 9.62563 139.659 9.24738 139.499 8.80988C139.34 8.37238 139.26 7.89386 139.26 7.37433V7.08722C139.26 6.48566 139.349 5.95018 139.526 5.48077C139.704 5.00682 139.946 4.60577 140.251 4.27765C140.556 3.94952 140.903 3.70115 141.29 3.53253C141.677 3.36391 142.078 3.2796 142.493 3.2796C143.022 3.2796 143.478 3.37075 143.86 3.55304C144.248 3.73533 144.564 3.99054 144.811 4.31866C145.057 4.64223 145.239 5.02504 145.357 5.4671C145.476 5.9046 145.535 6.38312 145.535 6.90265V7.47003H140.012V6.43781H144.271V6.3421C144.252 6.01398 144.184 5.69497 144.065 5.38507C143.951 5.07517 143.769 4.81997 143.519 4.61945C143.268 4.41892 142.926 4.31866 142.493 4.31866C142.206 4.31866 141.942 4.38019 141.7 4.50323C141.459 4.62172 141.251 4.79946 141.078 5.03644C140.905 5.27342 140.771 5.56281 140.675 5.9046C140.579 6.2464 140.531 6.6406 140.531 7.08722V7.37433C140.531 7.72524 140.579 8.05564 140.675 8.36554C140.775 8.67088 140.919 8.93976 141.105 9.17218C141.297 9.4046 141.527 9.58689 141.796 9.71906C142.069 9.85122 142.379 9.9173 142.726 9.9173C143.172 9.9173 143.55 9.82615 143.86 9.64386C144.17 9.46157 144.441 9.21775 144.674 8.91241L145.439 9.52081C145.28 9.76235 145.077 9.99249 144.831 10.2112C144.585 10.43 144.282 10.6077 143.922 10.7444C143.566 10.8812 143.145 10.9495 142.657 10.9495Z" fill="#331C15"/>
<path d="M135.233 10.9495C134.718 10.9495 134.251 10.8629 133.832 10.6898C133.417 10.512 133.06 10.2637 132.759 9.94464C132.463 9.62563 132.235 9.24738 132.075 8.80988C131.916 8.37238 131.836 7.89386 131.836 7.37433V7.08722C131.836 6.48566 131.925 5.95018 132.103 5.48077C132.28 5.00682 132.522 4.60577 132.827 4.27765C133.132 3.94952 133.479 3.70115 133.866 3.53253C134.254 3.36391 134.655 3.2796 135.069 3.2796C135.598 3.2796 136.054 3.37075 136.437 3.55304C136.824 3.73533 137.141 3.99054 137.387 4.31866C137.633 4.64223 137.815 5.02504 137.934 5.4671C138.052 5.9046 138.111 6.38312 138.111 6.90265V7.47003H132.588V6.43781H136.847V6.3421C136.828 6.01398 136.76 5.69497 136.642 5.38507C136.528 5.07517 136.345 4.81997 136.095 4.61945C135.844 4.41892 135.502 4.31866 135.069 4.31866C134.782 4.31866 134.518 4.38019 134.276 4.50323C134.035 4.62172 133.827 4.79946 133.654 5.03644C133.481 5.27342 133.347 5.56281 133.251 5.9046C133.155 6.2464 133.107 6.6406 133.107 7.08722V7.37433C133.107 7.72524 133.155 8.05564 133.251 8.36554C133.351 8.67088 133.495 8.93976 133.682 9.17218C133.873 9.4046 134.103 9.58689 134.372 9.71906C134.646 9.85122 134.955 9.9173 135.302 9.9173C135.748 9.9173 136.127 9.82615 136.437 9.64386C136.746 9.46157 137.018 9.21775 137.25 8.91241L138.016 9.52081C137.856 9.76235 137.653 9.99249 137.407 10.2112C137.161 10.43 136.858 10.6077 136.498 10.7444C136.143 10.8812 135.721 10.9495 135.233 10.9495Z" fill="#331C15"/>
<path d="M129.348 8.29718C129.348 8.06476 129.311 7.85968 129.238 7.68195C129.17 7.49965 129.047 7.33559 128.869 7.18976C128.696 7.04392 128.454 6.90493 128.145 6.77277C127.839 6.6406 127.452 6.50616 126.982 6.36945C126.49 6.22361 126.046 6.06183 125.649 5.88409C125.253 5.7018 124.913 5.49445 124.631 5.26202C124.348 5.0296 124.132 4.763 123.981 4.46222C123.831 4.16144 123.756 3.81736 123.756 3.42999C123.756 3.04262 123.836 2.68488 123.995 2.35675C124.155 2.02863 124.382 1.74379 124.679 1.50226C124.979 1.25616 125.337 1.06476 125.752 0.92804C126.167 0.791321 126.629 0.722961 127.14 0.722961C127.887 0.722961 128.521 0.866516 129.04 1.15363C129.564 1.43618 129.963 1.8076 130.236 2.26788C130.51 2.72361 130.646 3.21124 130.646 3.73077H129.334C129.334 3.35708 129.254 3.02667 129.095 2.73956C128.935 2.4479 128.694 2.22003 128.37 2.05597C128.047 1.88735 127.636 1.80304 127.14 1.80304C126.67 1.80304 126.283 1.87368 125.978 2.01495C125.672 2.15623 125.444 2.34764 125.294 2.58917C125.148 2.83071 125.075 3.10643 125.075 3.41632C125.075 3.62596 125.118 3.81736 125.205 3.99054C125.296 4.15916 125.435 4.31639 125.622 4.46222C125.813 4.60805 126.055 4.74249 126.347 4.86554C126.643 4.98859 126.996 5.10708 127.406 5.22101C127.971 5.38051 128.459 5.55825 128.869 5.75421C129.279 5.95017 129.617 6.1712 129.881 6.4173C130.15 6.65883 130.348 6.93455 130.476 7.24445C130.608 7.54978 130.674 7.89614 130.674 8.28351C130.674 8.68911 130.592 9.05597 130.428 9.38409C130.264 9.71222 130.029 9.99249 129.724 10.2249C129.418 10.4573 129.051 10.6373 128.623 10.765C128.199 10.888 127.725 10.9495 127.201 10.9495C126.741 10.9495 126.287 10.8857 125.841 10.7581C125.399 10.6305 124.995 10.4391 124.631 10.1839C124.271 9.92869 123.981 9.61424 123.763 9.24054C123.549 8.86228 123.441 8.42478 123.441 7.92804H124.754C124.754 8.26984 124.82 8.56378 124.952 8.80988C125.084 9.05141 125.264 9.25193 125.492 9.41144C125.725 9.57094 125.987 9.68943 126.278 9.76691C126.575 9.83982 126.882 9.87628 127.201 9.87628C127.661 9.87628 128.051 9.81248 128.37 9.68488C128.689 9.55727 128.931 9.37498 129.095 9.138C129.263 8.90102 129.348 8.62075 129.348 8.29718Z" fill="#331C15"/>
<path d="M112.06 7.19659V7.03937C112.06 6.50616 112.137 6.0117 112.292 5.55597C112.447 5.09568 112.67 4.69692 112.962 4.35968C113.254 4.01788 113.607 3.75356 114.021 3.56671C114.436 3.37531 114.901 3.2796 115.416 3.2796C115.936 3.2796 116.403 3.37531 116.817 3.56671C117.237 3.75356 117.592 4.01788 117.884 4.35968C118.18 4.69692 118.406 5.09568 118.561 5.55597C118.715 6.0117 118.793 6.50616 118.793 7.03937V7.19659C118.793 7.7298 118.715 8.22426 118.561 8.67999C118.406 9.13572 118.18 9.53448 117.884 9.87628C117.592 10.2135 117.239 10.4778 116.824 10.6693C116.414 10.8561 115.949 10.9495 115.43 10.9495C114.91 10.9495 114.443 10.8561 114.028 10.6693C113.614 10.4778 113.258 10.2135 112.962 9.87628C112.67 9.53448 112.447 9.13572 112.292 8.67999C112.137 8.22426 112.06 7.7298 112.06 7.19659ZM113.324 7.03937V7.19659C113.324 7.56573 113.368 7.91437 113.454 8.24249C113.541 8.56606 113.671 8.85317 113.844 9.10382C114.021 9.35447 114.243 9.55271 114.507 9.69855C114.771 9.83982 115.079 9.91046 115.43 9.91046C115.776 9.91046 116.079 9.83982 116.339 9.69855C116.603 9.55271 116.822 9.35447 116.995 9.10382C117.168 8.85317 117.298 8.56606 117.385 8.24249C117.476 7.91437 117.521 7.56573 117.521 7.19659V7.03937C117.521 6.67478 117.476 6.33071 117.385 6.00714C117.298 5.67902 117.166 5.38963 116.988 5.13898C116.815 4.88377 116.596 4.68325 116.332 4.53741C116.072 4.39158 115.767 4.31866 115.416 4.31866C115.07 4.31866 114.764 4.39158 114.5 4.53741C114.24 4.68325 114.021 4.88377 113.844 5.13898C113.671 5.38963 113.541 5.67902 113.454 6.00714C113.368 6.33071 113.324 6.67478 113.324 7.03937Z" fill="#331C15"/>
<path d="M108.594 0.85968V10.8128H107.295V0.85968H108.594ZM111.793 0.85968V1.93976H104.103V0.85968H111.793Z" fill="#331C15"/>
<path d="M95.127 8.85089C95.127 8.6686 95.0859 8.49998 95.0039 8.34503C94.9264 8.18553 94.7646 8.04197 94.5186 7.91437C94.277 7.78221 93.9124 7.66827 93.4248 7.57257C93.0146 7.48598 92.6432 7.38344 92.3105 7.26495C91.9824 7.14646 91.7021 7.00291 91.4697 6.83429C91.2419 6.66567 91.0664 6.46743 90.9434 6.23956C90.8203 6.0117 90.7588 5.7451 90.7588 5.43976C90.7588 5.14809 90.8226 4.87238 90.9502 4.61261C91.0824 4.35284 91.2669 4.1227 91.5039 3.92218C91.7454 3.72166 92.0348 3.56443 92.3721 3.4505C92.7093 3.33657 93.0853 3.2796 93.5 3.2796C94.0924 3.2796 94.5983 3.38442 95.0176 3.59406C95.4368 3.80369 95.7581 4.08396 95.9814 4.43488C96.2048 4.78123 96.3164 5.16632 96.3164 5.59015H95.0518C95.0518 5.38507 94.9902 5.18683 94.8672 4.99542C94.7487 4.79946 94.5732 4.63767 94.3408 4.51007C94.113 4.38247 93.8327 4.31866 93.5 4.31866C93.1491 4.31866 92.8643 4.37335 92.6455 4.48273C92.4313 4.58754 92.2741 4.72198 92.1738 4.88605C92.0781 5.05011 92.0303 5.22329 92.0303 5.40558C92.0303 5.5423 92.0531 5.66534 92.0986 5.77472C92.1488 5.87954 92.2354 5.97752 92.3584 6.06866C92.4814 6.15525 92.6546 6.23728 92.8779 6.31476C93.1012 6.39223 93.3861 6.46971 93.7324 6.54718C94.3385 6.6839 94.8376 6.84796 95.2295 7.03937C95.6214 7.23077 95.9131 7.46547 96.1045 7.74347C96.2959 8.02146 96.3916 8.3587 96.3916 8.75519C96.3916 9.07876 96.3232 9.37498 96.1865 9.64386C96.0544 9.91274 95.8607 10.1452 95.6055 10.3411C95.3548 10.5325 95.054 10.6829 94.7031 10.7923C94.3568 10.8971 93.9671 10.9495 93.5342 10.9495C92.8825 10.9495 92.3311 10.8333 91.8799 10.6009C91.4287 10.3685 91.0869 10.0677 90.8545 9.69855C90.6221 9.32941 90.5059 8.93976 90.5059 8.5296H91.7773C91.7956 8.87596 91.8958 9.15167 92.0781 9.35675C92.2604 9.55727 92.4837 9.70083 92.748 9.78741C93.0124 9.86945 93.2744 9.91046 93.5342 9.91046C93.8805 9.91046 94.1699 9.86489 94.4023 9.77374C94.6393 9.6826 94.8193 9.55727 94.9424 9.39777C95.0654 9.23826 95.127 9.05597 95.127 8.85089Z" fill="#331C15"/>
<path d="M86.4658 10.9495C85.9508 10.9495 85.4837 10.8629 85.0645 10.6898C84.6497 10.512 84.292 10.2637 83.9912 9.94464C83.695 9.62563 83.4671 9.24738 83.3076 8.80988C83.1481 8.37238 83.0684 7.89386 83.0684 7.37433V7.08722C83.0684 6.48566 83.1572 5.95018 83.335 5.48077C83.5127 5.00682 83.7542 4.60577 84.0596 4.27765C84.3649 3.94952 84.7113 3.70115 85.0986 3.53253C85.486 3.36391 85.887 3.2796 86.3018 3.2796C86.8304 3.2796 87.2861 3.37075 87.6689 3.55304C88.0563 3.73533 88.373 3.99054 88.6191 4.31866C88.8652 4.64223 89.0475 5.02504 89.166 5.4671C89.2845 5.9046 89.3438 6.38312 89.3438 6.90265V7.47003H83.8203V6.43781H88.0791V6.3421C88.0609 6.01398 87.9925 5.69497 87.874 5.38507C87.7601 5.07517 87.5778 4.81997 87.3271 4.61945C87.0765 4.41892 86.7347 4.31866 86.3018 4.31866C86.0146 4.31866 85.7503 4.38019 85.5088 4.50323C85.2673 4.62172 85.0599 4.79946 84.8867 5.03644C84.7135 5.27342 84.5791 5.56281 84.4834 5.9046C84.3877 6.2464 84.3398 6.6406 84.3398 7.08722V7.37433C84.3398 7.72524 84.3877 8.05564 84.4834 8.36554C84.5837 8.67088 84.7272 8.93976 84.9141 9.17218C85.1055 9.4046 85.3356 9.58689 85.6045 9.71906C85.8779 9.85122 86.1878 9.9173 86.5342 9.9173C86.9808 9.9173 87.359 9.82615 87.6689 9.64386C87.9788 9.46157 88.25 9.21775 88.4824 8.91241L89.248 9.52081C89.0885 9.76235 88.8857 9.99249 88.6396 10.2112C88.3936 10.43 88.0905 10.6077 87.7305 10.7444C87.375 10.8812 86.9535 10.9495 86.4658 10.9495Z" fill="#331C15"/>
<path d="M78.9395 10.0472L80.9971 3.41632H82.3506L79.3838 11.9544C79.3154 12.1367 79.2243 12.3327 79.1104 12.5423C79.001 12.7565 78.8597 12.9593 78.6865 13.1507C78.5133 13.3421 78.3037 13.4971 78.0576 13.6155C77.8161 13.7386 77.5267 13.8001 77.1895 13.8001C77.0892 13.8001 76.9616 13.7864 76.8066 13.7591C76.6517 13.7318 76.5423 13.709 76.4785 13.6907L76.4717 12.6653C76.5081 12.6699 76.5651 12.6745 76.6426 12.679C76.7246 12.6881 76.7816 12.6927 76.8135 12.6927C77.1006 12.6927 77.3444 12.654 77.5449 12.5765C77.7454 12.5036 77.9141 12.3782 78.0508 12.2005C78.1921 12.0273 78.3128 11.7881 78.4131 11.4827L78.9395 10.0472ZM77.4287 3.41632L79.3496 9.15851L79.6777 10.4915L78.7686 10.9564L76.0479 3.41632H77.4287Z" fill="#331C15"/>
<path d="M75.5967 9.73956V10.8128H70.3262V9.73956H75.5967ZM70.5928 0.85968V10.8128H69.2734V0.85968H70.5928ZM74.8994 5.13898V6.21222H70.3262V5.13898H74.8994ZM75.5283 0.85968V1.93976H70.3262V0.85968H75.5283Z" fill="#331C15"/>
<path d="M62.1299 4.57843V10.8128H60.8652V3.41632H62.0957L62.1299 4.57843ZM64.4404 3.37531L64.4336 4.55109C64.3288 4.5283 64.2285 4.51463 64.1328 4.51007C64.0417 4.50096 63.9368 4.4964 63.8184 4.4964C63.5267 4.4964 63.2692 4.54197 63.0459 4.63312C62.8226 4.72426 62.6335 4.85187 62.4785 5.01593C62.3236 5.17999 62.2005 5.37596 62.1094 5.60382C62.0228 5.82713 61.9658 6.07322 61.9385 6.3421L61.583 6.54718C61.583 6.10057 61.6263 5.68129 61.7129 5.28937C61.804 4.89744 61.943 4.55109 62.1299 4.25031C62.3167 3.94497 62.5537 3.70799 62.8408 3.53937C63.1325 3.36619 63.4788 3.2796 63.8799 3.2796C63.971 3.2796 64.0758 3.291 64.1943 3.31378C64.3128 3.33201 64.3949 3.35252 64.4404 3.37531Z" fill="#331C15"/>
<path d="M57.666 9.10382V3.41632H58.9375V10.8128H57.7275L57.666 9.10382ZM57.9053 7.54523L58.4316 7.53156C58.4316 8.02374 58.3792 8.47947 58.2744 8.89874C58.1742 9.31346 58.0101 9.67348 57.7822 9.97882C57.5544 10.2842 57.2559 10.5234 56.8867 10.6966C56.5176 10.8652 56.0687 10.9495 55.54 10.9495C55.18 10.9495 54.8496 10.8971 54.5488 10.7923C54.2526 10.6875 53.9974 10.5257 53.7832 10.3069C53.569 10.0882 53.4027 9.80337 53.2842 9.45245C53.1702 9.10154 53.1133 8.67999 53.1133 8.18781V3.41632H54.3779V8.20148C54.3779 8.53416 54.4144 8.80988 54.4873 9.02863C54.5648 9.24282 54.6673 9.41372 54.7949 9.54132C54.9271 9.66437 55.0729 9.75096 55.2324 9.80109C55.3965 9.85122 55.5651 9.87628 55.7383 9.87628C56.276 9.87628 56.7021 9.77374 57.0166 9.56866C57.3311 9.35903 57.5566 9.07876 57.6934 8.72784C57.8346 8.37238 57.9053 7.97817 57.9053 7.54523Z" fill="#331C15"/>
<path d="M44.8213 7.19659V7.03937C44.8213 6.50616 44.8988 6.0117 45.0537 5.55597C45.2087 5.09568 45.432 4.69692 45.7236 4.35968C46.0153 4.01788 46.3685 3.75356 46.7832 3.56671C47.1979 3.37531 47.6628 3.2796 48.1777 3.2796C48.6973 3.2796 49.1644 3.37531 49.5791 3.56671C49.9984 3.75356 50.3538 4.01788 50.6455 4.35968C50.9417 4.69692 51.1673 5.09568 51.3223 5.55597C51.4772 6.0117 51.5547 6.50616 51.5547 7.03937V7.19659C51.5547 7.7298 51.4772 8.22426 51.3223 8.67999C51.1673 9.13572 50.9417 9.53448 50.6455 9.87628C50.3538 10.2135 50.0007 10.4778 49.5859 10.6693C49.1758 10.8561 48.7109 10.9495 48.1914 10.9495C47.6719 10.9495 47.2048 10.8561 46.79 10.6693C46.3753 10.4778 46.0199 10.2135 45.7236 9.87628C45.432 9.53448 45.2087 9.13572 45.0537 8.67999C44.8988 8.22426 44.8213 7.7298 44.8213 7.19659ZM46.0859 7.03937V7.19659C46.0859 7.56573 46.1292 7.91437 46.2158 8.24249C46.3024 8.56606 46.4323 8.85317 46.6055 9.10382C46.7832 9.35447 47.0042 9.55271 47.2686 9.69855C47.5329 9.83982 47.8405 9.91046 48.1914 9.91046C48.5378 9.91046 48.8408 9.83982 49.1006 9.69855C49.3649 9.55271 49.5837 9.35447 49.7568 9.10382C49.93 8.85317 50.0599 8.56606 50.1465 8.24249C50.2376 7.91437 50.2832 7.56573 50.2832 7.19659V7.03937C50.2832 6.67478 50.2376 6.33071 50.1465 6.00714C50.0599 5.67902 49.9277 5.38963 49.75 5.13898C49.5768 4.88377 49.3581 4.68325 49.0938 4.53741C48.834 4.39158 48.5286 4.31866 48.1777 4.31866C47.8314 4.31866 47.526 4.39158 47.2617 4.53741C47.002 4.68325 46.7832 4.88377 46.6055 5.13898C46.4323 5.38963 46.3024 5.67902 46.2158 6.00714C46.1292 6.33071 46.0859 6.67478 46.0859 7.03937Z" fill="#331C15"/>
<path d="M37.8486 0.85968L40.4326 5.85675L43.0234 0.85968H44.5205L41.0889 7.09406V10.8128H39.7695V7.09406L36.3379 0.85968H37.8486Z" fill="#331C15"/>
<path d="M27.2529 4.99542V10.8128H25.9883V3.41632H27.1846L27.2529 4.99542ZM26.9521 6.83429L26.4258 6.81378C26.4303 6.30792 26.5055 5.8408 26.6514 5.41241C26.7972 4.97947 27.0023 4.6035 27.2666 4.28448C27.5309 3.96547 27.8454 3.71938 28.21 3.5462C28.5791 3.36847 28.987 3.2796 29.4336 3.2796C29.7982 3.2796 30.1263 3.32973 30.418 3.42999C30.7096 3.5257 30.958 3.68064 31.1631 3.89484C31.3727 4.10903 31.5322 4.38702 31.6416 4.72882C31.751 5.06606 31.8057 5.4785 31.8057 5.96613V10.8128H30.5342V5.95245C30.5342 5.56508 30.4772 5.25519 30.3633 5.02277C30.2493 4.78579 30.083 4.61489 29.8643 4.51007C29.6455 4.4007 29.3766 4.34601 29.0576 4.34601C28.7432 4.34601 28.4561 4.41209 28.1963 4.54425C27.9411 4.67641 27.7201 4.8587 27.5332 5.09113C27.3509 5.32355 27.2074 5.59015 27.1025 5.89093C27.0023 6.18715 26.9521 6.50161 26.9521 6.83429Z" fill="#331C15"/>
<path d="M21.6338 10.9495C21.1188 10.9495 20.6517 10.8629 20.2324 10.6898C19.8177 10.512 19.46 10.2637 19.1592 9.94464C18.863 9.62563 18.6351 9.24738 18.4756 8.80988C18.3161 8.37238 18.2363 7.89386 18.2363 7.37433V7.08722C18.2363 6.48566 18.3252 5.95018 18.5029 5.48077C18.6807 5.00682 18.9222 4.60577 19.2275 4.27765C19.5329 3.94952 19.8792 3.70115 20.2666 3.53253C20.654 3.36391 21.055 3.2796 21.4697 3.2796C21.9984 3.2796 22.4541 3.37075 22.8369 3.55304C23.2243 3.73533 23.541 3.99054 23.7871 4.31866C24.0332 4.64223 24.2155 5.02504 24.334 5.4671C24.4525 5.9046 24.5117 6.38312 24.5117 6.90265V7.47003H18.9883V6.43781H23.2471V6.3421C23.2288 6.01398 23.1605 5.69497 23.042 5.38507C22.9281 5.07517 22.7458 4.81997 22.4951 4.61945C22.2445 4.41892 21.9027 4.31866 21.4697 4.31866C21.1826 4.31866 20.9183 4.38019 20.6768 4.50323C20.4352 4.62172 20.2279 4.79946 20.0547 5.03644C19.8815 5.27342 19.7471 5.56281 19.6514 5.9046C19.5557 6.2464 19.5078 6.6406 19.5078 7.08722V7.37433C19.5078 7.72524 19.5557 8.05564 19.6514 8.36554C19.7516 8.67088 19.8952 8.93976 20.082 9.17218C20.2734 9.4046 20.5036 9.58689 20.7725 9.71906C21.0459 9.85122 21.3558 9.9173 21.7021 9.9173C22.1488 9.9173 22.527 9.82615 22.8369 9.64386C23.1468 9.46157 23.418 9.21775 23.6504 8.91241L24.416 9.52081C24.2565 9.76235 24.0537 9.99249 23.8076 10.2112C23.5615 10.43 23.2585 10.6077 22.8984 10.7444C22.543 10.8812 22.1214 10.9495 21.6338 10.9495Z" fill="#331C15"/>
<path d="M11.9678 4.8382V13.6566H10.6963V3.41632H11.8584L11.9678 4.8382ZM16.9512 7.05304V7.19659C16.9512 7.73435 16.8874 8.23338 16.7598 8.69366C16.6322 9.14939 16.4453 9.54588 16.1992 9.88312C15.9577 10.2204 15.6592 10.4824 15.3037 10.6693C14.9482 10.8561 14.5404 10.9495 14.0801 10.9495C13.6107 10.9495 13.196 10.872 12.8359 10.7171C12.4759 10.5622 12.1706 10.3366 11.9199 10.0403C11.6693 9.74412 11.4688 9.38865 11.3184 8.97394C11.1725 8.55922 11.0723 8.0921 11.0176 7.57257V6.80695C11.0723 6.26007 11.1748 5.77016 11.3252 5.33722C11.4756 4.90428 11.6738 4.53514 11.9199 4.2298C12.1706 3.9199 12.4736 3.6852 12.8291 3.5257C13.1846 3.36163 13.5947 3.2796 14.0596 3.2796C14.5244 3.2796 14.9368 3.37075 15.2969 3.55304C15.6569 3.73077 15.96 3.98598 16.2061 4.31866C16.4521 4.65135 16.6367 5.05011 16.7598 5.51495C16.8874 5.97524 16.9512 6.48794 16.9512 7.05304ZM15.6797 7.19659V7.05304C15.6797 6.6839 15.641 6.33754 15.5635 6.01398C15.486 5.68585 15.3652 5.39874 15.2012 5.15265C15.0417 4.902 14.8366 4.70603 14.5859 4.56476C14.3353 4.41892 14.0368 4.34601 13.6904 4.34601C13.3714 4.34601 13.0934 4.4007 12.8564 4.51007C12.624 4.61945 12.4258 4.76756 12.2617 4.95441C12.0977 5.1367 11.9632 5.34633 11.8584 5.58331C11.7581 5.81573 11.6829 6.05727 11.6328 6.30792V8.07843C11.724 8.39744 11.8516 8.69822 12.0156 8.98077C12.1797 9.25877 12.3984 9.48435 12.6719 9.65753C12.9453 9.82615 13.2894 9.91046 13.7041 9.91046C14.0459 9.91046 14.3398 9.83982 14.5859 9.69855C14.8366 9.55271 15.0417 9.35447 15.2012 9.10382C15.3652 8.85317 15.486 8.56606 15.5635 8.24249C15.641 7.91437 15.6797 7.56573 15.6797 7.19659Z" fill="#331C15"/>
<path d="M8.91895 5.52179V6.1507C8.91895 6.89809 8.82552 7.56801 8.63867 8.16046C8.45182 8.75291 8.18294 9.25649 7.83203 9.6712C7.48112 10.0859 7.05957 10.4026 6.56738 10.6214C6.07975 10.8401 5.53288 10.9495 4.92676 10.9495C4.33887 10.9495 3.79883 10.8401 3.30664 10.6214C2.81901 10.4026 2.39518 10.0859 2.03516 9.6712C1.67969 9.25649 1.40397 8.75291 1.20801 8.16046C1.01204 7.56801 0.914062 6.89809 0.914062 6.1507V5.52179C0.914062 4.77439 1.00977 4.10675 1.20117 3.51886C1.39714 2.92641 1.67285 2.42283 2.02832 2.00812C2.38379 1.58885 2.80534 1.26984 3.29297 1.05109C3.78516 0.832336 4.3252 0.722961 4.91309 0.722961C5.51921 0.722961 6.06608 0.832336 6.55371 1.05109C7.0459 1.26984 7.46745 1.58885 7.81836 2.00812C8.17383 2.42283 8.44499 2.92641 8.63184 3.51886C8.82324 4.10675 8.91895 4.77439 8.91895 5.52179ZM7.61328 6.1507V5.50812C7.61328 4.91567 7.55176 4.39158 7.42871 3.93585C7.31022 3.48012 7.13477 3.09731 6.90234 2.78741C6.66992 2.47752 6.38509 2.24282 6.04785 2.08331C5.71517 1.92381 5.33691 1.84406 4.91309 1.84406C4.50293 1.84406 4.13151 1.92381 3.79883 2.08331C3.4707 2.24282 3.18815 2.47752 2.95117 2.78741C2.71875 3.09731 2.53874 3.48012 2.41113 3.93585C2.28353 4.39158 2.21973 4.91567 2.21973 5.50812V6.1507C2.21973 6.7477 2.28353 7.27635 2.41113 7.73663C2.53874 8.19236 2.72103 8.57745 2.95801 8.89191C3.19954 9.2018 3.48438 9.4365 3.8125 9.59601C4.14518 9.75551 4.5166 9.83527 4.92676 9.83527C5.35514 9.83527 5.73568 9.75551 6.06836 9.59601C6.40104 9.4365 6.68131 9.2018 6.90918 8.89191C7.1416 8.57745 7.31706 8.19236 7.43555 7.73663C7.55404 7.27635 7.61328 6.7477 7.61328 6.1507Z" fill="#331C15"/>
</svg>
