<svg width="293" height="53" viewBox="0 0 293 53" fill="none" xmlns="http://www.w3.org/2000/svg">
<path d="M274.614 20.4156C274.675 20.259 274.823 20.1331 275.057 20.0381C275.291 19.943 275.54 19.8791 275.806 19.8463C276.071 19.7979 276.321 19.7731 276.555 19.7717C276.79 19.7548 276.946 19.7461 277.024 19.7456C277.258 19.7443 277.407 19.806 277.47 19.9306C277.549 20.0395 277.589 20.219 277.591 20.469C277.591 20.594 277.554 20.8755 277.478 21.3134C277.403 21.7357 277.304 22.2675 277.183 22.9088C277.077 23.5501 276.956 24.2773 276.82 25.0906C276.7 25.9038 276.579 26.7405 276.459 27.6005C276.355 28.4605 276.266 29.336 276.193 30.2271C276.12 31.1025 276.085 31.9308 276.09 32.7121C276.098 34.0714 276.33 35.0936 276.787 35.7785C277.244 36.4478 277.769 36.7807 278.363 36.7774C279.394 36.7715 280.304 36.0085 281.092 34.4884C281.88 32.9683 282.696 30.7449 283.539 27.8181L283.5 20.9979C283.498 20.7323 283.614 20.5207 283.848 20.3631C284.097 20.1899 284.377 20.0555 284.689 19.9599C285.001 19.8644 285.306 19.8002 285.602 19.7672C285.899 19.7187 286.11 19.694 286.235 19.6933C286.719 19.6906 286.963 19.9314 286.966 20.4158C286.966 20.5876 286.952 20.8768 286.924 21.2832C286.91 21.6739 286.889 22.1428 286.861 22.6898C286.833 23.2212 286.805 23.8152 286.778 24.4716C286.766 25.1123 286.761 25.7608 286.765 26.417L286.819 35.9559C287.099 35.5949 287.447 35.1164 287.866 34.5203C288.3 33.924 288.742 33.2887 289.191 32.6143C289.656 31.9397 290.097 31.2653 290.516 30.5911C290.949 29.9167 291.297 29.3132 291.56 28.7804L291.815 28.2868L292.78 29.0079L292.525 29.5015C292.201 30.1596 291.814 30.8415 291.365 31.5472C290.916 32.2529 290.435 32.9666 289.924 33.6882C289.428 34.3942 288.908 35.1003 288.365 35.8065C287.838 36.497 287.326 37.1562 286.83 37.784L286.859 42.9636C286.867 44.4011 286.741 45.6206 286.481 46.6221C286.237 47.6391 285.89 48.4614 285.441 49.0889C284.991 49.7321 284.463 50.1961 283.855 50.4808C283.247 50.7655 282.584 50.9099 281.865 50.914C281.412 50.9165 280.99 50.8486 280.598 50.7102C280.223 50.5717 279.893 50.3626 279.61 50.083C279.328 49.819 279.107 49.4921 278.949 49.1024C278.79 48.7283 278.71 48.299 278.707 47.8147C278.703 47.1115 278.824 46.4077 279.07 45.7032C279.332 44.9986 279.687 44.27 280.136 43.5174C280.6 42.7648 281.135 41.9883 281.74 41.188C282.345 40.4033 282.996 39.5792 283.694 38.7159L283.654 31.6144C283.269 32.6791 282.853 33.6659 282.405 34.5747C281.957 35.4679 281.469 36.2363 280.942 36.8799C280.414 37.5235 279.847 38.0268 279.239 38.3896C278.632 38.7524 277.977 38.9358 277.274 38.9398C276.774 38.9427 276.258 38.8675 275.725 38.7142C275.209 38.5453 274.723 38.2434 274.267 37.8085C273.827 37.3734 273.465 36.7896 273.179 36.0568C272.894 35.3084 272.748 34.3561 272.741 33.1999C272.734 31.8874 272.804 30.551 272.953 29.1908C273.101 27.8305 273.274 26.5639 273.47 25.3909C273.682 24.2178 273.895 23.1931 274.109 22.3169C274.323 21.4251 274.491 20.7913 274.614 20.4156ZM281.599 49.4858C281.849 49.4843 282.099 49.4282 282.348 49.3174C282.613 49.2222 282.846 48.9943 283.048 48.6338C283.249 48.2733 283.41 47.7411 283.531 47.0373C283.667 46.3333 283.732 45.3798 283.725 44.1767L283.705 40.6377C283.178 41.297 282.689 41.9326 282.24 42.5445C281.806 43.172 281.426 43.7757 281.101 44.3557C280.777 44.9513 280.522 45.5231 280.338 46.071C280.153 46.6189 280.063 47.1507 280.065 47.6663C280.068 48.1507 280.203 48.5718 280.471 48.9297C280.739 49.3031 281.115 49.4885 281.599 49.4858Z" fill="#331C15"/>
<path d="M261.902 31.3395C261.893 29.6833 261.946 28.0189 262.061 26.3463C262.177 24.6738 262.331 22.9775 262.525 21.2577L260.392 21.2698L260.642 19.8387L262.704 19.8269C262.914 18.232 263.123 16.637 263.333 15.042C263.558 13.4314 263.76 11.8208 263.938 10.2104L266.329 10.1968C266.3 10.5408 266.256 11.041 266.197 11.6976C266.154 12.3385 266.095 13.0888 266.022 13.9486C265.964 14.7927 265.907 15.7228 265.851 16.7387C265.794 17.7391 265.737 18.7628 265.68 19.81L270.227 19.7842L270.001 21.2152L265.595 21.2402C265.537 22.1312 265.488 23.0065 265.446 23.8661C265.404 24.7258 265.361 25.5463 265.319 26.3278C265.292 27.0936 265.273 27.8047 265.261 28.461C265.249 29.1017 265.244 29.6564 265.247 30.1252C265.254 31.3126 265.29 32.3046 265.358 33.1012C265.44 33.8976 265.553 34.5376 265.697 35.0211C265.856 35.5046 266.045 35.8473 266.265 36.0492C266.5 36.251 266.767 36.351 267.063 36.3493C267.454 36.3471 267.883 36.1494 268.349 35.7561C268.831 35.3471 269.328 34.8052 269.84 34.1304C270.352 33.4556 270.871 32.6714 271.397 31.7778C271.923 30.8685 272.433 29.9047 272.927 28.8862L273.159 28.3927L274.124 29.1138L273.892 29.6073C273.182 31.0645 272.471 32.3733 271.758 33.5336C271.062 34.6938 270.372 35.6821 269.689 36.4985C269.006 37.2993 268.338 37.9202 267.684 38.3615C267.03 38.7871 266.399 39.0016 265.789 39.005C265.18 39.0085 264.632 38.871 264.146 38.5925C263.676 38.3139 263.275 37.8709 262.944 37.2634C262.612 36.6402 262.357 35.8448 262.18 34.877C262.003 33.9093 261.91 32.7301 261.902 31.3395Z" fill="#331C15"/>
<path d="M252.636 33.9937C252.558 34.1191 252.442 34.3386 252.288 34.6519C252.149 34.9496 251.963 35.2866 251.731 35.6629C251.515 36.0392 251.251 36.4313 250.941 36.8393C250.646 37.2472 250.305 37.6164 249.916 37.9467C249.527 38.2771 249.091 38.553 248.608 38.7745C248.141 38.9959 247.618 39.1082 247.04 39.1115C246.587 39.1141 246.117 39.023 245.632 38.8382C245.147 38.6535 244.691 38.3123 244.267 37.8147C243.858 37.317 243.518 36.6393 243.247 35.7814C242.977 34.9079 242.838 33.7837 242.83 32.4087C242.822 31.0963 242.862 29.7835 242.948 28.4705C243.034 27.1419 243.137 25.9303 243.256 24.8359C243.39 23.7414 243.518 22.8265 243.638 22.0915C243.759 21.3564 243.85 20.9106 243.912 20.754C243.974 20.613 244.098 20.4873 244.285 20.3768C244.472 20.2664 244.682 20.1793 244.916 20.1154C245.166 20.0515 245.416 20.0032 245.665 19.9706C245.931 19.9378 246.157 19.9209 246.345 19.9198C246.595 19.9184 246.791 19.9798 246.932 20.104C247.089 20.2281 247.168 20.4386 247.17 20.7355C247.171 20.8761 247.141 21.1575 247.081 21.5797C247.036 21.9862 246.977 22.4866 246.902 23.0808C246.827 23.675 246.745 24.3317 246.655 25.051C246.581 25.7701 246.507 26.5049 246.433 27.2554C246.359 27.9902 246.293 28.7249 246.235 29.4597C246.192 30.1787 246.172 30.835 246.176 31.4288C246.185 33.1319 246.372 34.3965 246.736 35.2225C247.116 36.0485 247.728 36.4591 248.572 36.4543C249.29 36.4502 250.014 35.9227 250.742 34.8717C251.486 33.8205 252.126 32.2934 252.662 30.2904C252.735 29.4462 252.8 28.5474 252.857 27.5939C252.93 26.6247 252.995 25.7103 253.053 24.8506C253.11 23.9752 253.16 23.1937 253.203 22.5059C253.262 21.8181 253.314 21.3256 253.359 21.0285C253.405 20.8094 253.529 20.629 253.731 20.4873C253.933 20.3299 254.159 20.2114 254.409 20.1319C254.674 20.0366 254.923 19.9727 255.158 19.9401C255.407 19.8918 255.595 19.8673 255.72 19.8666C255.985 19.8651 256.165 19.9266 256.26 20.051C256.37 20.1598 256.426 20.3392 256.427 20.5892C256.428 20.8079 256.407 21.2299 256.364 21.8552C256.336 22.4647 256.293 23.1837 256.235 24.0122C256.193 24.8249 256.143 25.7002 256.086 26.6381C256.029 27.5759 255.972 28.4825 255.914 29.3578C255.872 30.2175 255.83 30.999 255.787 31.7023C255.76 32.4056 255.747 32.937 255.749 33.2963C255.755 34.3588 255.815 35.1944 255.927 35.8032C256.056 36.4118 256.323 36.715 256.729 36.7127C257.026 36.711 257.346 36.5217 257.687 36.1447C258.044 35.7521 258.424 35.2109 258.826 34.5211C259.244 33.8312 259.693 33.0161 260.172 32.0759C260.651 31.12 261.168 30.078 261.724 28.9498L261.956 28.4563L262.921 29.1774L262.69 29.6709C261.948 31.1595 261.291 32.4914 260.72 33.6666C260.164 34.826 259.631 35.8056 259.119 36.6054C258.608 37.4052 258.088 38.0175 257.56 38.4424C257.031 38.8516 256.438 39.0581 255.782 39.0619C255.172 39.0653 254.664 38.951 254.256 38.719C253.864 38.4868 253.55 38.1526 253.313 37.7165C253.076 37.2803 252.901 36.7501 252.789 36.1257C252.691 35.5012 252.64 34.7906 252.636 33.9937Z" fill="#331C15"/>
<path d="M236.741 33.3574C236.746 34.248 236.829 34.9976 236.988 35.606C237.148 36.2145 237.423 36.5176 237.814 36.5154C238.048 36.5141 238.298 36.4033 238.562 36.183C238.842 35.9471 239.16 35.5703 239.517 35.0526C239.873 34.535 240.275 33.8686 240.724 33.0535C241.188 32.2228 241.714 31.212 242.301 30.0211L242.995 28.564L243.96 29.2851L243.266 30.7422C242.617 32.0584 242.006 33.2416 241.434 34.2917C240.878 35.3261 240.343 36.2042 239.832 36.9259C239.32 37.6475 238.816 38.2051 238.318 38.5985C237.836 38.9763 237.352 39.1665 236.868 39.1693C236.352 39.1722 235.914 39.0341 235.553 38.7549C235.208 38.4756 234.917 38.0944 234.679 37.6114C234.442 37.1127 234.259 36.5434 234.131 35.9035C234.002 35.248 233.912 34.5532 233.861 33.8191C233.49 34.5712 233.08 35.2767 232.631 35.9355C232.181 36.5787 231.708 37.1439 231.211 37.6311C230.729 38.1182 230.224 38.5039 229.694 38.7881C229.164 39.0724 228.634 39.216 228.103 39.219C227.321 39.2235 226.563 39.0637 225.826 38.7398C225.09 38.4158 224.431 37.9196 223.849 37.251C223.283 36.5823 222.825 35.7411 222.475 34.7275C222.126 33.6982 221.947 32.4883 221.939 31.0977C221.93 29.4727 222.132 27.9871 222.547 26.641C222.961 25.2793 223.525 24.112 224.238 23.1392C224.951 22.1507 225.775 21.3882 226.709 20.8517C227.644 20.2995 228.626 20.0205 229.658 20.0146C230.283 20.011 230.861 20.1484 231.394 20.4266C231.927 20.7048 232.39 21.046 232.783 21.45C233.191 21.8383 233.53 22.2583 233.798 22.7099C234.066 23.1459 234.248 23.5198 234.343 23.8318L234.612 21.5568C234.641 21.2598 234.781 21.009 235.029 20.8044C235.294 20.5998 235.582 20.4419 235.894 20.3308C236.206 20.204 236.51 20.1163 236.806 20.0678C237.103 20.0036 237.314 19.9711 237.439 19.9704C237.626 19.9694 237.751 19.9999 237.814 20.062C237.877 20.1242 237.909 20.249 237.91 20.4365C237.911 20.6709 237.844 21.1478 237.707 21.8674C237.586 22.5712 237.451 23.4782 237.301 24.5885C237.166 25.683 237.033 26.9728 236.901 28.458C236.784 29.943 236.731 31.5762 236.741 33.3574ZM234.128 27.1846C234.124 26.4659 234.011 25.7634 233.788 25.0772C233.565 24.3753 233.265 23.7598 232.887 23.2307C232.509 22.686 232.069 22.2509 231.567 21.9257C231.081 21.6003 230.564 21.4392 230.017 21.4423C229.345 21.4461 228.714 21.645 228.122 22.039C227.546 22.4172 227.041 22.9592 226.608 23.6648C226.19 24.3547 225.859 25.1925 225.614 26.1783C225.37 27.1484 225.251 28.2194 225.258 29.3913C225.271 31.735 225.648 33.522 226.39 34.7521C227.131 35.9667 228.111 36.5705 229.33 36.5636C229.861 36.5606 230.407 36.3465 230.967 35.9215C231.542 35.4807 232.062 34.8606 232.526 34.061C233.006 33.2458 233.391 32.2592 233.682 31.1013C233.987 29.9433 234.136 28.6377 234.128 27.1846Z" fill="#331C15"/>
<path d="M215.174 36.644C215.721 36.6409 216.274 36.4971 216.835 36.2126C217.412 35.9281 217.987 35.4873 218.562 34.8903C219.153 34.2932 219.758 33.5241 220.377 32.5831C220.997 31.6264 221.631 30.49 222.28 29.1738L222.511 28.6803L223.476 29.4014L223.245 29.8949C222.411 31.5715 221.575 33.006 220.738 34.1983C219.917 35.3905 219.102 36.3638 218.294 37.1184C217.501 37.873 216.715 38.4243 215.936 38.7725C215.156 39.1207 214.407 39.2968 213.689 39.3009C212.673 39.3066 211.766 39.1009 210.966 38.6835C210.167 38.2662 209.492 37.6997 208.941 36.984C208.39 36.2528 207.971 35.4114 207.685 34.4599C207.382 33.4928 207.228 32.4781 207.222 31.4156C207.212 29.7281 207.438 28.1956 207.899 26.8179C208.344 25.4247 208.947 24.2338 209.707 23.2451C210.483 22.2563 211.361 21.4857 212.342 20.9332C213.323 20.3808 214.345 20.1015 215.408 20.0955C216.486 20.0894 217.308 20.3581 217.873 20.9018C218.455 21.4454 218.748 22.1312 218.752 22.9594C218.757 23.7562 218.534 24.5075 218.085 25.2132C217.636 25.9032 217.023 26.5864 216.245 27.2627C215.484 27.9233 214.597 28.5846 213.585 29.2466C212.573 29.893 211.506 30.5631 210.385 31.257C210.499 32.0689 210.691 32.81 210.96 33.4803C211.23 34.1351 211.569 34.7035 211.978 35.1855C212.387 35.652 212.858 36.0165 213.39 36.2791C213.923 36.5261 214.517 36.6477 215.174 36.644ZM215.827 23.6791C215.823 23.0541 215.648 22.5629 215.303 22.2055C214.972 21.848 214.565 21.6706 214.081 21.6734C213.675 21.6757 213.246 21.8265 212.794 22.126C212.343 22.4098 211.931 22.8731 211.56 23.5158C211.189 24.143 210.881 24.9494 210.636 25.9352C210.392 26.921 210.274 28.117 210.282 29.5232L210.285 30.0622C210.814 29.778 211.398 29.4075 212.036 28.9507C212.69 28.4782 213.296 27.9592 213.855 27.3935C214.415 26.8278 214.88 26.2314 215.252 25.6043C215.639 24.9614 215.83 24.3197 215.827 23.6791Z" fill="#331C15"/>
<path d="M202.725 7.2064C202.733 8.597 202.467 9.91103 201.927 11.1485C201.387 12.3703 200.698 13.4993 199.86 14.5353C199.038 15.5712 198.129 16.5139 197.134 17.3633C196.155 18.197 195.221 18.9211 194.334 19.5355C195.585 19.6378 196.829 19.9354 198.066 20.4284C199.318 20.9056 200.439 21.579 201.429 22.4484C202.434 23.3021 203.244 24.3444 203.861 25.5752C204.493 26.7904 204.813 28.1793 204.822 29.7417C204.829 31.023 204.648 32.1803 204.279 33.2136C203.925 34.2313 203.446 35.1481 202.842 35.964C202.237 36.7643 201.545 37.4558 200.767 38.0383C200.005 38.6208 199.226 39.1018 198.432 39.4813C197.637 39.8608 196.849 40.1387 196.069 40.315C195.305 40.5069 194.626 40.6045 194.032 40.6079C192.532 40.6164 191.281 40.4438 190.279 40.0901C189.292 39.7363 188.501 39.3033 187.904 38.7911C187.323 38.2631 186.914 37.7107 186.676 37.1339C186.438 36.5572 186.318 36.05 186.316 35.6125C186.312 34.9407 186.449 34.2992 186.727 33.6883C187.02 33.0616 187.408 32.4969 187.889 31.9942C188.371 31.4914 188.931 31.0507 189.569 30.6721C190.207 30.2778 190.87 29.9772 191.556 29.7702L192.053 30.5408C191.071 31.0776 190.349 31.7693 189.885 32.6157C189.421 33.4464 189.191 34.2837 189.196 35.1274C189.199 35.5962 189.295 36.0878 189.486 36.6024C189.691 37.1012 189.991 37.5604 190.384 37.9801C190.793 38.3997 191.295 38.7484 191.89 39.0262C192.501 39.2884 193.213 39.4172 194.025 39.4126C195.212 39.4058 196.321 39.1808 197.349 38.7374C198.378 38.2785 199.265 37.6562 200.011 36.8707C200.772 36.0695 201.36 35.1365 201.776 34.0716C202.208 33.0066 202.42 31.857 202.413 30.6226C202.406 29.357 202.134 28.2413 201.597 27.2756C201.076 26.3098 200.376 25.5013 199.497 24.85C198.634 24.183 197.631 23.6809 196.488 23.3436C195.362 23.0063 194.189 22.8411 192.97 22.848C192.47 22.8508 191.978 22.8849 191.494 22.9501C191.01 22.9997 190.549 23.0727 190.112 23.1689C189.691 23.2494 189.309 23.3297 188.965 23.4098C188.622 23.4899 188.357 23.5539 188.17 23.6018L187.934 23.3688L190.071 20.005C190.243 19.9572 190.438 19.9014 190.656 19.8376C190.843 19.7897 191.07 19.7415 191.335 19.6931C191.6 19.6291 191.897 19.5806 192.225 19.5475C192.972 19.0901 193.75 18.5154 194.559 17.8232C195.383 17.1154 196.128 16.3065 196.795 15.3965C197.477 14.4707 198.034 13.4363 198.465 12.2932C198.911 11.15 199.131 9.90654 199.123 8.56281C199.111 6.29722 198.562 4.58937 197.477 3.43926C196.392 2.28915 194.85 1.71977 192.85 1.73113C191.694 1.73769 190.531 1.9943 189.362 2.50095C188.193 2.99197 187.065 3.74839 185.977 4.7702C184.904 5.79193 183.896 7.07893 182.952 8.63119C182.023 10.1834 181.213 12.0083 180.522 14.106C179.846 16.2036 179.313 18.5895 178.922 21.2637C178.531 23.9378 178.344 26.8998 178.363 30.1498C178.37 31.4935 178.432 32.7354 178.548 33.8754C178.679 35.0152 178.865 36.0064 179.104 36.8488C179.359 37.6755 179.667 38.3222 180.029 38.7889C180.391 39.2556 180.814 39.4876 181.299 39.4848C181.783 39.4821 182.164 39.1283 182.441 38.4236C182.734 37.7032 182.947 36.7723 183.081 35.6309C183.231 34.4738 183.318 33.1842 183.341 31.7622C183.38 30.34 183.395 28.9103 183.387 27.4728C183.374 25.2853 183.331 23.2308 183.258 21.3093C183.184 19.3722 183.104 17.6461 183.018 16.1309C182.947 14.6157 182.877 13.3504 182.809 12.3352C182.74 11.3199 182.697 10.6405 182.68 10.2968L185.394 9.46109C185.473 9.58564 185.584 9.96002 185.728 10.5842C185.873 11.2084 186.018 12.0357 186.164 13.0661C186.311 14.081 186.435 15.2678 186.536 16.6266C186.653 17.9697 186.716 19.4225 186.725 20.985C186.74 23.6255 186.675 25.9463 186.53 27.9471C186.401 29.9323 186.207 31.66 185.95 33.1302C185.693 34.5848 185.387 35.7975 185.033 36.7683C184.695 37.7389 184.317 38.5145 183.898 39.0951C183.495 39.6599 183.068 40.0607 182.616 40.2977C182.18 40.5502 181.743 40.6776 181.305 40.6801C180.352 40.6855 179.491 40.3623 178.722 39.7104C177.968 39.074 177.323 38.2261 176.785 37.1667C176.248 36.0916 175.835 34.8673 175.546 33.494C175.257 32.1049 175.108 30.6761 175.1 29.2074C175.088 27.098 175.271 24.9173 175.648 22.6651C176.026 20.4129 176.592 18.2143 177.345 16.0694C178.099 13.9088 179.032 11.8644 180.146 9.9362C181.26 7.99235 182.548 6.29751 184.008 4.85169C185.469 3.39025 187.095 2.23256 188.887 1.37863C190.695 0.508973 192.653 0.0681586 194.762 0.056182C195.966 0.0493508 197.052 0.207245 198.023 0.529864C199.009 0.83677 199.848 1.30077 200.539 1.92185C201.23 2.52731 201.765 3.27429 202.145 4.16277C202.525 5.05125 202.719 6.06579 202.725 7.2064Z" fill="#331C15"/>
<path d="M151.021 48.5397C151.018 47.8522 151.139 47.1562 151.385 46.4517C151.646 45.747 152.002 45.0263 152.45 44.2893C152.899 43.5524 153.418 42.7838 154.008 41.9836C154.613 41.1989 155.264 40.3827 155.963 39.5349L155.937 35.1053C155.567 35.8418 155.148 36.4926 154.683 37.0578C154.217 37.6229 153.72 38.1023 153.191 38.496C152.678 38.8739 152.14 39.166 151.579 39.3723C151.033 39.5629 150.494 39.6597 149.963 39.6627C149.229 39.6669 148.517 39.4913 147.827 39.1358C147.153 38.7802 146.549 38.2446 146.014 37.5289C145.478 36.7975 145.051 35.8781 144.732 34.7705C144.413 33.6629 144.25 32.3591 144.241 30.8591C144.234 29.5935 144.375 28.3427 144.665 27.1067C144.955 25.8706 145.394 24.7666 145.982 23.7945C146.571 22.8067 147.3 22.0057 148.172 21.3914C149.043 20.777 150.065 20.4665 151.237 20.4599C152.159 20.4546 153.019 20.6373 153.818 21.0077C154.633 21.3781 155.316 21.9211 155.867 22.6368L155.865 22.3555C155.863 22.0586 155.948 21.7925 156.118 21.5572C156.304 21.3061 156.53 21.1017 156.795 20.944C157.075 20.7705 157.363 20.6439 157.66 20.564C157.972 20.4685 158.245 20.4201 158.479 20.4188C158.745 20.4173 158.932 20.4553 159.042 20.5328C159.152 20.5946 159.207 20.7115 159.208 20.8834C159.21 21.1334 159.182 21.696 159.124 22.5714C159.067 23.4467 159.043 24.7281 159.052 26.4156L159.11 36.5873C159.498 36.1007 159.909 35.5593 160.343 34.9631C160.777 34.3669 161.211 33.7472 161.645 33.1041C162.079 32.4454 162.497 31.7711 162.899 31.0813C163.317 30.3915 163.704 29.7017 164.059 29.0122L164.291 28.5421L165.256 29.2632L165.024 29.7333C164.654 30.4854 164.22 31.2692 163.725 32.0845C163.245 32.8841 162.734 33.6761 162.192 34.4604C161.665 35.229 161.13 35.9743 160.587 36.6961C160.06 37.4022 159.571 38.0378 159.121 38.6029L159.15 43.6888C159.158 45.1262 159.033 46.3457 158.773 47.3472C158.528 48.3642 158.181 49.1865 157.732 49.8141C157.298 50.4572 156.769 50.9211 156.146 51.2059C155.538 51.4906 154.875 51.635 154.156 51.6391C153.266 51.6442 152.522 51.3671 151.925 50.808C151.328 50.2645 151.027 49.5084 151.021 48.5397ZM151.379 37.264C151.864 37.2613 152.339 37.118 152.807 36.834C153.289 36.5501 153.733 36.1882 154.136 35.7484C154.54 35.3086 154.897 34.83 155.206 34.3126C155.531 33.7795 155.771 33.2625 155.924 32.7616L155.887 26.1523C155.883 25.4492 155.77 24.817 155.548 24.2558C155.326 23.6789 155.034 23.1962 154.672 22.8076C154.311 22.4034 153.895 22.0933 153.425 21.8772C152.97 21.661 152.501 21.5543 152.017 21.557C151.267 21.5613 150.612 21.7916 150.052 22.2479C149.492 22.6886 149.026 23.2772 148.656 24.0137C148.285 24.7345 148.008 25.5642 147.826 26.5028C147.659 27.4412 147.579 28.3948 147.584 29.3636C147.591 30.5667 147.668 31.6522 147.814 32.6201C147.976 33.588 148.215 34.4226 148.531 35.1239C148.848 35.8096 149.241 36.3387 149.712 36.711C150.183 37.0833 150.739 37.2677 151.379 37.264ZM153.89 50.2109C154.14 50.2095 154.39 50.1534 154.639 50.0426C154.904 49.9473 155.138 49.7195 155.339 49.3589C155.54 48.9984 155.701 48.4662 155.822 47.7624C155.943 47.0586 156 46.1051 155.993 44.902L155.973 41.4099C154.902 42.7129 154.027 43.9444 153.346 45.1046C152.681 46.2802 152.351 47.3759 152.357 48.3915C152.359 48.8758 152.495 49.297 152.762 49.6548C153.03 50.0283 153.406 50.2137 153.89 50.2109Z" fill="#FF8D67"/>
<path d="M134.371 22.1729C133.934 22.1753 133.443 22.3735 132.898 22.7672C132.369 23.1608 131.833 23.6717 131.29 24.2998C130.746 24.9122 130.219 25.6027 129.708 26.3713C129.212 27.1397 128.779 27.9 128.408 28.6521C128.369 30.0274 128.331 31.5276 128.293 33.1529C128.271 34.778 128.265 36.5125 128.276 38.3562C128.277 38.5905 128.169 38.8021 127.951 38.9908C127.749 39.1639 127.508 39.3137 127.227 39.4403C126.947 39.5512 126.658 39.6388 126.361 39.703C126.065 39.7672 125.823 39.7998 125.635 39.8009C125.401 39.8022 125.182 39.7331 124.978 39.5937C124.774 39.4542 124.671 39.1423 124.668 38.6579C124.667 38.4235 124.688 38.1343 124.733 37.7903C124.778 37.4307 124.839 37.0475 124.914 36.6409C124.975 36.2343 125.05 35.8198 125.142 35.3974C125.217 34.9594 125.293 34.5527 125.369 34.1773L125.304 22.7165C125.302 22.404 125.309 22.1618 125.323 21.9899C125.322 21.8024 125.345 21.6616 125.391 21.5676C125.484 21.3483 125.647 21.1755 125.881 21.0492C126.114 20.9229 126.364 20.8277 126.629 20.7637C126.894 20.684 127.152 20.6357 127.402 20.6187C127.651 20.6016 127.847 20.5927 127.987 20.5919C128.253 20.5904 128.433 20.6597 128.528 20.7998C128.638 20.9398 128.694 21.1895 128.696 21.5488C128.696 21.502 128.659 21.885 128.585 22.6979C128.527 23.5108 128.479 24.6751 128.441 26.191C128.906 25.454 129.409 24.748 129.952 24.073C130.496 23.398 131.062 22.801 131.653 22.282C132.244 21.7631 132.851 21.3455 133.474 21.0295C134.113 20.7134 134.761 20.5534 135.417 20.5497C136.589 20.5431 137.45 20.9132 138.001 21.6601C138.552 22.3913 138.832 23.3897 138.839 24.6554C138.843 25.4522 138.794 26.3431 138.69 27.3281C138.602 28.2974 138.49 29.2902 138.355 30.3066C138.236 31.3073 138.124 32.2923 138.02 33.2617C137.932 34.2153 137.89 35.0906 137.895 35.8875C137.901 36.9187 138.224 37.4325 138.864 37.4289C139.068 37.4277 139.301 37.3248 139.566 37.1202C139.846 36.8998 140.187 36.4994 140.59 35.919C141.009 35.3385 141.504 34.5466 142.077 33.5434C142.649 32.5245 143.329 31.2159 144.117 29.6177L144.349 29.1241L145.314 29.8452L145.082 30.3387C144.155 32.219 143.328 33.7628 142.6 34.9701C141.889 36.1773 141.238 37.1341 140.648 37.8406C140.058 38.5471 139.506 39.0424 138.992 39.3266C138.478 39.5951 137.963 39.7309 137.448 39.7338C137.12 39.7357 136.791 39.6907 136.463 39.5988C136.134 39.5069 135.844 39.3445 135.593 39.1115C135.341 38.8786 135.136 38.5672 134.978 38.1775C134.819 37.7721 134.738 37.257 134.735 36.632C134.729 35.6945 134.786 34.6395 134.904 33.4669C135.023 32.2943 135.157 31.1217 135.306 29.9489C135.456 28.7762 135.59 27.6738 135.709 26.6419C135.828 25.5943 135.886 24.7424 135.882 24.0862C135.879 23.5081 135.751 23.0479 135.499 22.7055C135.247 22.3476 134.871 22.17 134.371 22.1729Z" fill="#FF8D67"/>
<path d="M115.007 29.5485L114.775 30.0186L114.543 30.5121L113.578 29.791L113.81 29.2975C114.196 28.4984 114.512 27.6997 114.757 26.9015C115.018 26.0875 115.225 25.3285 115.377 24.6245C115.545 23.9204 115.682 23.3024 115.789 22.7705C115.895 22.2387 116.002 21.8552 116.11 21.6202C116.203 21.4322 116.335 21.283 116.506 21.1727C116.693 21.0466 116.88 20.944 117.067 20.8648C117.27 20.7855 117.457 20.7298 117.628 20.6975C117.816 20.6652 117.948 20.6489 118.027 20.6484C118.37 20.6465 118.597 20.7155 118.707 20.8555C118.833 20.9954 118.897 21.245 118.899 21.6044C118.9 21.7763 118.864 22.2062 118.789 22.8941C118.731 23.5663 118.657 24.4183 118.569 25.4501C118.497 26.4661 118.426 27.615 118.355 28.8967C118.299 30.1626 118.276 31.4753 118.283 32.8347C118.289 33.819 118.34 34.6 118.437 35.1776C118.534 35.7395 118.654 36.1607 118.796 36.4412C118.954 36.7215 119.119 36.9003 119.291 36.9774C119.479 37.0545 119.667 37.0925 119.854 37.0914C120.104 37.09 120.385 36.979 120.696 36.7585C121.007 36.538 121.372 36.1531 121.791 35.6038C122.21 35.039 122.69 34.2862 123.232 33.3456C123.773 32.3894 124.407 31.1827 125.133 29.7254L125.388 29.2318L126.353 29.9528L126.098 30.4465C125.511 31.6061 124.924 32.7501 124.336 33.8784C123.764 35.0067 123.176 36.01 122.572 36.8885C121.983 37.7668 121.386 38.4812 120.779 39.0315C120.173 39.5662 119.565 39.8353 118.956 39.8388C118.315 39.8424 117.76 39.7205 117.29 39.4732C116.835 39.2102 116.45 38.7827 116.134 38.1907C115.834 37.5986 115.603 36.8187 115.441 35.8508C115.295 34.8673 115.218 33.6568 115.209 32.2193C115.207 31.813 115.205 31.3912 115.202 30.9537C115.2 30.5006 115.213 30.0317 115.241 29.5472L115.007 29.5485ZM119.734 15.834C119.737 16.3808 119.552 16.8428 119.179 17.2199C118.822 17.5813 118.37 17.7636 117.823 17.7667C117.291 17.7697 116.837 17.5926 116.46 17.2354C116.083 16.8625 115.893 16.4026 115.89 15.8558C115.887 15.3245 116.072 14.8704 116.445 14.4932C116.818 14.1161 117.27 13.926 117.801 13.923C118.348 13.9199 118.802 14.1048 119.163 14.4778C119.541 14.8507 119.731 15.3027 119.734 15.834Z" fill="#FF8D67"/>
<path d="M96.0344 39.9689C95.0813 39.9744 94.252 39.7759 93.5466 39.3737C92.8568 38.9713 92.2834 38.4277 91.8263 37.7428C91.3692 37.0423 91.0287 36.2395 90.8048 35.3345C90.581 34.4295 90.4661 33.4692 90.4604 32.4536C90.4553 31.563 90.5361 30.6563 90.7027 29.7334C90.8694 28.8106 91.1065 27.9186 91.4141 27.0575C91.7373 26.1806 92.1389 25.3658 92.619 24.6131C93.099 23.8447 93.6499 23.1775 94.2717 22.6115C94.8935 22.0454 95.5863 21.5962 96.35 21.2637C97.1294 20.9312 97.9644 20.7624 98.855 20.7573C99.8706 20.7515 100.731 20.9732 101.437 21.4223C102.158 21.8714 102.74 22.4228 103.181 23.0765C103.18 20.1234 103.313 17.5132 103.582 15.246C103.85 12.9788 104.23 11.0782 104.721 9.54413C105.228 8.00998 105.831 6.85029 106.53 6.06506C107.228 5.2642 107.999 4.86138 108.843 4.85659C109.14 4.85491 109.406 4.89246 109.641 4.96925C109.891 5.03033 110.095 5.15418 110.252 5.34079C110.425 5.52731 110.551 5.78441 110.631 6.11208C110.727 6.42405 110.776 6.83002 110.779 7.33001C110.785 8.36125 110.69 9.54931 110.495 10.8942C110.299 12.2234 110.018 13.6782 109.652 15.2584C109.286 16.823 108.835 18.4975 108.298 20.2818C107.777 22.0504 107.193 23.8897 106.548 25.7996C106.573 27.4714 106.605 28.9166 106.643 30.1351C106.681 31.3537 106.726 32.3847 106.778 33.2282C106.845 34.0715 106.919 34.7586 107 35.2894C107.097 35.8201 107.201 36.2336 107.312 36.5299C107.438 36.8104 107.58 37.0049 107.737 37.1134C107.909 37.2062 108.097 37.252 108.3 37.2508C108.66 37.2488 109.018 37.0905 109.376 36.776C109.749 36.4457 110.145 35.9669 110.563 35.3395C110.981 34.6965 111.43 33.9127 111.909 32.9881C112.404 32.0634 112.945 30.9978 113.532 29.7913L113.787 29.2977L114.752 30.0188L114.497 30.5124C113.601 32.3456 112.812 33.8658 112.132 35.0728C111.451 36.2642 110.824 37.2209 110.25 37.9429C109.691 38.6648 109.155 39.1757 108.641 39.4755C108.127 39.7597 107.589 39.9033 107.026 39.9065C106.48 39.9096 106.002 39.7795 105.594 39.5162C105.202 39.2372 104.864 38.8094 104.579 38.2329C104.295 37.6408 104.064 36.8921 103.887 35.9868C103.71 35.0659 103.571 33.9651 103.47 32.6844C102.929 33.7813 102.372 34.7766 101.799 35.6705C101.226 36.5644 100.629 37.3334 100.007 37.9776C99.4017 38.6061 98.7638 39.0941 98.0939 39.4416C97.424 39.7892 96.7375 39.965 96.0344 39.9689ZM99.3305 21.9499C98.4712 21.9548 97.7227 22.2247 97.0851 22.7596C96.4474 23.2788 95.92 23.9615 95.503 24.8077C95.0858 25.6382 94.7786 26.5774 94.5814 27.6254C94.3843 28.6734 94.2887 29.7209 94.2946 30.7677C94.2995 31.6271 94.3667 32.4549 94.4962 33.251C94.6413 34.0314 94.8483 34.7256 95.1174 35.3335C95.4021 35.9412 95.7408 36.4237 96.1335 36.7808C96.5261 37.138 96.9803 37.3151 97.4959 37.3122C97.9959 37.3093 98.4795 37.1816 98.9468 36.9289C99.4298 36.6762 99.9041 36.275 100.37 35.7255C100.835 35.1604 101.308 34.4389 101.787 33.5612C102.266 32.6678 102.776 31.5868 103.316 30.3181C103.28 29.5683 103.252 28.7715 103.232 27.9279C103.211 27.0686 103.198 26.1546 103.193 25.1859C102.843 24.1722 102.315 23.3783 101.609 22.8042C100.918 22.23 100.159 21.9452 99.3305 21.9499ZM109.096 8.20677C109.092 7.48803 109.004 6.98853 108.83 6.70826C108.672 6.4279 108.484 6.28834 108.265 6.28958C107.89 6.29171 107.588 6.66062 107.357 7.39632C107.127 8.11639 106.945 9.094 106.812 10.3292C106.694 11.5642 106.608 12.9944 106.555 14.6197C106.517 16.245 106.503 17.956 106.514 19.7529L106.528 22.331C107.004 20.7501 107.41 19.3259 107.746 18.0583C108.083 16.7908 108.349 15.6096 108.546 14.5147C108.743 13.4198 108.886 12.3643 108.974 11.3481C109.062 10.332 109.103 9.28488 109.096 8.20677Z" fill="#FF8D67"/>
<path d="M84.9625 34.2192C84.9675 35.1098 85.0499 35.8594 85.2096 36.4679C85.3693 37.0763 85.6445 37.3795 86.0351 37.3772C86.2695 37.3759 86.5188 37.2651 86.7832 37.0449C87.0631 36.8089 87.3813 36.4321 87.7378 35.9144C88.0942 35.3968 88.4967 34.7304 88.9452 33.9154C89.4092 33.0846 89.9347 32.0738 90.5217 30.8829L91.2166 29.4258L92.1816 30.1469L91.4868 31.604C90.838 32.9202 90.2275 34.1034 89.6553 35.1535C89.0987 36.188 88.5646 37.066 88.0531 37.7877C87.5416 38.5093 87.0369 39.0669 86.5391 39.4604C86.0569 39.8381 85.5736 40.0283 85.0892 40.0311C84.5736 40.034 84.1353 39.8959 83.7743 39.6167C83.429 39.3374 83.1378 38.9562 82.9006 38.4732C82.6634 37.9745 82.4805 37.4052 82.3519 36.7653C82.2232 36.1098 82.1333 35.415 82.0822 34.6809C81.7115 35.433 81.3014 36.1385 80.852 36.7973C80.4026 37.4405 79.9292 38.0057 79.432 38.4929C78.9503 38.98 78.4447 39.3657 77.9151 39.6499C77.3854 39.9342 76.855 40.0778 76.3237 40.0809C75.5425 40.0853 74.7838 39.9255 74.0475 39.6016C73.3113 39.2776 72.6522 38.7814 72.0703 38.1128C71.504 37.4441 71.0461 36.603 70.6966 35.5893C70.347 34.56 70.1682 33.3501 70.1603 31.9595C70.1511 30.3345 70.3536 28.849 70.7679 27.5028C71.182 26.1411 71.7457 24.9738 72.4589 24.001C73.1721 23.0125 73.9959 22.25 74.9304 21.7135C75.8647 21.1613 76.8475 20.8823 77.8788 20.8764C78.5038 20.8729 79.0827 21.0102 79.6155 21.2884C80.1484 21.5667 80.6112 21.9078 81.0042 22.3118C81.4126 22.7001 81.751 23.1201 82.0192 23.5717C82.2873 24.0077 82.4691 24.3817 82.5646 24.6936L82.8329 22.4186C82.8625 22.1216 83.0017 21.8708 83.2505 21.6662C83.515 21.4616 83.8032 21.3037 84.1151 21.1926C84.4268 21.0658 84.731 20.9781 85.0276 20.9296C85.3242 20.8654 85.5349 20.8329 85.6599 20.8322C85.8474 20.8312 85.9726 20.8617 86.0354 20.9239C86.0983 20.986 86.1302 21.1108 86.1313 21.2983C86.1326 21.5327 86.065 22.0096 85.9285 22.7292C85.8075 23.433 85.672 24.34 85.5221 25.4503C85.3876 26.5448 85.2543 27.8346 85.1221 29.3198C85.0056 30.8049 84.9524 32.438 84.9625 34.2192ZM82.3493 28.0465C82.3452 27.3277 82.2318 26.6252 82.0092 25.939C81.7864 25.2371 81.486 24.6216 81.108 24.0925C80.7299 23.5478 80.29 23.1128 79.7881 22.7875C79.3019 22.4621 78.7853 22.301 78.2385 22.3041C77.5666 22.3079 76.9349 22.5068 76.3434 22.9008C75.7674 23.2791 75.2626 23.821 74.8291 24.5266C74.4112 25.2165 74.08 26.0543 73.8356 27.0401C73.5911 28.0102 73.4722 29.0813 73.4788 30.2531C73.4921 32.5968 73.8695 34.3838 74.6108 35.614C75.3521 36.8285 76.3321 37.4323 77.5509 37.4254C78.0821 37.4224 78.6278 37.2084 79.1879 36.7833C79.7635 36.3425 80.2834 35.7224 80.7476 34.9228C81.2274 34.1076 81.6124 33.121 81.9027 31.9631C82.2087 30.8051 82.3575 29.4996 82.3493 28.0465Z" fill="#FF8D67"/>
<path d="M70.7326 29.5421L71.6976 30.2632L71.466 30.7567C70.8945 31.9162 70.1341 32.8424 69.1849 33.5353C68.2512 34.2125 67.2219 34.5543 66.0969 34.5607C65.7688 34.5626 65.4249 34.5333 65.0652 34.4728C64.721 34.3966 64.3766 34.2892 64.0321 34.1505L64.1329 51.9159L61.7437 52.1638C61.5412 49.5243 61.3609 46.6737 61.2029 43.6121C61.133 42.2999 61.0624 40.8785 60.9912 39.3476C60.9357 37.8166 60.8796 36.2075 60.8232 34.5203C60.7666 32.8175 60.7254 31.0521 60.6994 29.2241C60.6576 27.3805 60.6314 25.5057 60.6205 23.5994C60.6035 20.5995 60.7525 17.9502 61.0676 15.6515C61.3827 13.3528 61.8092 11.4206 62.3472 9.85503C62.9008 8.28936 63.5348 7.10606 64.249 6.30512C64.9632 5.50417 65.7187 5.10144 66.5156 5.09691C66.8125 5.09523 67.094 5.14832 67.3603 5.25618C67.6264 5.34842 67.8539 5.50339 68.0426 5.72107C68.247 5.93866 68.4049 6.23464 68.5164 6.60902C68.6279 6.98339 68.6852 7.4362 68.6882 7.96744C68.6958 9.31117 68.548 10.7964 68.2447 12.4232C67.9414 14.0343 67.5522 15.6693 67.0772 17.3283C66.6179 18.9872 66.1115 20.6151 65.5581 22.212C65.0045 23.7933 64.4814 25.226 63.9887 26.51L64.0185 31.76C64.1602 31.9467 64.3252 32.1098 64.5135 32.2493C64.7174 32.3888 64.929 32.5048 65.1483 32.5973C65.3831 32.6741 65.6178 32.7353 65.8524 32.7808C66.0871 32.8264 66.2982 32.8486 66.4857 32.8475C67.2981 32.8429 68.0469 32.6277 68.732 32.202C69.4171 31.7762 70.0068 31.0541 70.501 30.0356L70.7326 29.5421ZM63.9715 23.4867C64.3558 22.3751 64.7165 21.2168 65.0534 20.0117C65.3903 18.8066 65.6881 17.594 65.9468 16.3738C66.2054 15.1379 66.4094 13.9102 66.5587 12.6905C66.708 11.4709 66.7795 10.2986 66.7731 9.17364C66.769 8.4549 66.6954 7.87719 66.5523 7.44049C66.4092 7.0038 66.1424 6.78656 65.7517 6.78878C65.408 6.79073 65.1131 7.14397 64.8671 7.84851C64.6367 8.55295 64.4468 9.50717 64.2974 10.7112C64.1635 11.8994 64.0699 13.2984 64.0166 14.9081C63.9631 16.5022 63.9415 18.1977 63.9517 19.9945L63.9715 23.4867Z" fill="#FF8D67"/>
<path d="M50.7009 22.6479C50.2634 22.6504 49.7724 22.8485 49.2277 23.2422C48.6987 23.6358 48.1625 24.1467 47.6192 24.7748C47.0758 25.3873 46.5485 26.0778 46.0372 26.8463C45.5415 27.6148 45.1083 28.3751 44.7376 29.1272C44.6985 30.5024 44.6602 32.0027 44.6225 33.6279C44.6005 35.2531 44.5947 36.9875 44.6052 38.8312C44.6065 39.0656 44.4984 39.2771 44.2807 39.4659C44.0785 39.6389 43.8372 39.7887 43.5567 39.9153C43.276 40.0263 42.9875 40.1139 42.6909 40.178C42.3944 40.2422 42.1524 40.2748 41.9649 40.2759C41.7306 40.2772 41.5114 40.2082 41.3075 40.0687C41.1036 39.9292 41.0002 39.6173 40.9975 39.1329C40.9962 38.8986 41.018 38.6094 41.0629 38.2654C41.1077 37.9057 41.168 37.5226 41.2439 37.1159C41.304 36.7093 41.3798 36.2948 41.4712 35.8724C41.5468 35.4345 41.6226 35.0278 41.6986 34.6523L41.6335 23.1916C41.6318 22.8791 41.6382 22.6369 41.6529 22.4649C41.6518 22.2774 41.6744 22.1366 41.7208 22.0426C41.8133 21.8234 41.9764 21.6505 42.21 21.5242C42.4437 21.3979 42.6932 21.3027 42.9584 21.2387C43.2236 21.1591 43.4811 21.1107 43.731 21.0937C43.981 21.0767 44.1762 21.0677 44.3168 21.0669C44.5825 21.0654 44.7625 21.1347 44.8571 21.2748C44.9673 21.4148 45.0234 21.6645 45.0254 22.0239C45.0251 21.977 44.9883 22.36 44.9147 23.173C44.8569 23.9858 44.8088 25.1501 44.7705 26.666C45.2351 25.929 45.7389 25.223 46.2819 24.548C46.825 23.8731 47.3919 23.2761 47.9827 22.7571C48.5736 22.2381 49.1806 21.8206 49.8038 21.5045C50.4426 21.1884 51.0902 21.0285 51.7464 21.0248C52.9183 21.0181 53.7798 21.3882 54.3309 22.1351C54.8819 22.8664 55.161 23.8648 55.1682 25.1304C55.1727 25.9273 55.1231 26.8182 55.0193 27.8032C54.9311 28.7724 54.8195 29.7653 54.6847 30.7817C54.5653 31.7824 54.4537 32.7674 54.3499 33.7367C54.2615 34.6904 54.2196 35.5656 54.2242 36.3625C54.23 37.3937 54.5532 37.9075 55.1939 37.9039C55.397 37.9027 55.6308 37.7998 55.8952 37.5952C56.1752 37.3749 56.5167 36.9745 56.9197 36.3941C57.3383 35.8136 57.8338 35.0217 58.4062 34.0184C58.9786 32.9995 59.6587 31.6909 60.4465 30.0927L60.678 29.5992L61.6431 30.3203L61.4115 30.8138C60.4847 32.6941 59.6575 34.2379 58.93 35.4451C58.2181 36.6523 57.5672 37.6092 56.9775 38.3156C56.3877 39.0221 55.8358 39.5175 55.3218 39.8016C54.8077 40.0702 54.2929 40.2059 53.7772 40.2088C53.4491 40.2107 53.1207 40.1657 52.7921 40.0738C52.4634 39.9819 52.1734 39.8195 51.9221 39.5866C51.6708 39.3536 51.4659 39.0423 51.3074 38.6525C51.1489 38.2472 51.0678 37.732 51.0643 37.107C51.0589 36.1695 51.1155 35.1145 51.2338 33.9419C51.3521 32.7694 51.4861 31.5967 51.6357 30.424C51.7853 29.2512 51.9197 28.1489 52.0388 27.1169C52.1579 26.0694 52.2155 25.2175 52.2118 24.5612C52.2085 23.9831 52.0809 23.5229 51.829 23.1806C51.5769 22.8226 51.2009 22.6451 50.7009 22.6479Z" fill="#FF8D67"/>
<path d="M19.9106 40.4011C20.8325 40.3959 21.7218 40.1721 22.5787 39.7297C23.4356 39.2874 24.2602 38.6733 25.0527 37.8875C25.8451 37.1018 26.5898 36.1678 27.2868 35.0857C27.9994 34.0035 28.6724 32.8278 29.3059 31.5586L29.2996 30.457C29.2885 28.5039 29.347 26.4255 29.4752 24.2216C29.6188 22.002 29.825 19.7976 30.0939 17.6086C30.3627 15.4195 30.6945 13.3238 31.0894 11.3216C31.4843 9.31929 31.9274 7.55112 32.4187 6.01706C32.9256 4.48291 33.4812 3.26098 34.0854 2.35129C34.6896 1.42597 35.3276 0.961401 35.9994 0.957586C36.4838 0.954836 36.8446 1.20279 37.0818 1.70145C37.319 2.20011 37.4407 2.9885 37.4468 4.06661C37.4531 5.17596 37.3595 6.58277 37.1661 8.28702C36.9882 9.99118 36.7098 11.8678 36.3308 13.9169C35.9517 15.9503 35.4718 18.1093 34.891 20.3939C34.3101 22.6628 33.6276 24.9246 32.8436 27.1791L32.8519 28.6556C32.8687 31.6087 33.108 33.8495 33.5698 35.3782C34.0472 36.9067 34.8485 37.6678 35.9734 37.6614C36.4109 37.659 36.8242 37.516 37.2132 37.2325C37.6022 36.9491 37.9982 36.5093 38.4011 35.9133C38.8039 35.3172 39.2449 34.5491 39.7239 33.6088C40.2185 32.6529 40.7902 31.5168 41.439 30.2006L41.694 29.707L42.6356 30.4282L42.404 30.9217C41.6317 32.4886 40.9441 33.8597 40.3414 35.035C39.7386 36.1947 39.1426 37.1669 38.5533 37.9515C37.9796 38.736 37.3735 39.3254 36.7351 39.7197C36.0967 40.1139 35.3635 40.3134 34.5354 40.3181C32.9729 40.327 31.7821 39.7556 30.9631 38.604C30.1596 37.4366 29.6422 35.7599 29.4111 33.5736C28.7771 34.7491 28.0957 35.8311 27.367 36.8197C26.6537 37.7925 25.885 38.6328 25.0609 39.3406C24.2524 40.0483 23.3962 40.6001 22.4922 40.9959C21.6038 41.3915 20.6596 41.5922 19.6596 41.5979C18.644 41.6037 17.6586 41.4296 16.7035 41.0756C15.7483 40.7216 14.9015 40.1796 14.1629 39.4494C13.4243 38.7036 12.833 37.7616 12.389 36.6235C11.945 35.4697 11.7185 34.1038 11.7095 32.5257C11.6998 30.807 11.862 29.1107 12.1963 27.4369C12.5461 25.763 12.9822 24.1277 13.5044 22.531C14.0421 20.9185 14.6113 19.3528 15.2121 17.8337C15.8285 16.3145 16.3983 14.8582 16.9217 13.4645C17.4606 12.0552 17.8983 10.7168 18.2348 9.44921C18.5869 8.16594 18.7598 6.96182 18.7534 5.83683C18.7496 5.16497 18.6761 4.60288 18.5329 4.15056C18.3896 3.68262 18.1844 3.30877 17.9171 3.02904C17.6655 2.74921 17.3598 2.55563 16.9998 2.4483C16.6553 2.32525 16.2721 2.26493 15.8503 2.26732C14.694 2.27389 13.5628 2.54594 12.4564 3.08348C11.3657 3.62093 10.3307 4.33776 9.3514 5.23396C8.38772 6.13007 7.49511 7.15859 6.67356 8.31952C5.86764 9.48037 5.1714 10.6953 4.58484 11.9643C3.99829 13.2332 3.54459 14.5093 3.22375 15.7924C2.90281 17.0598 2.74554 18.256 2.75193 19.381C2.75876 20.5841 2.99042 21.4813 3.44691 22.0724C3.90339 22.6636 4.55351 22.9568 5.39724 22.952C6.00661 22.9485 6.62277 22.7654 7.24572 22.4024C7.86858 22.0239 8.4672 21.5049 9.04159 20.8453C9.63161 20.1857 10.1818 19.4013 10.6923 18.4922C11.2184 17.5829 11.6815 16.5803 12.0815 15.4842L13.0452 15.971C12.7524 16.6914 12.3509 17.5218 11.8406 18.4622C11.3459 19.4025 10.7494 20.2966 10.0511 21.1443C9.35279 21.992 8.55216 22.7075 7.6492 23.2908C6.76188 23.874 5.77916 24.1686 4.70105 24.1747C4.04481 24.1785 3.43487 24.0804 2.87122 23.8804C2.30749 23.6649 1.82131 23.3473 1.41267 22.9278C1.00403 22.5082 0.688561 21.9865 0.466266 21.3628C0.228346 20.7391 0.106991 20.0054 0.102201 19.1617C0.0942161 17.7555 0.328327 16.3322 0.804532 14.892C1.26511 13.4519 1.89788 12.0654 2.70282 10.7327C3.50768 9.38439 4.45369 8.129 5.54086 6.96656C6.62794 5.78849 7.7784 4.76632 8.99225 3.90004C10.2217 3.03367 11.4835 2.34681 12.7775 1.83945C14.0715 1.33209 15.3357 1.07491 16.57 1.0679C17.32 1.06365 18.0004 1.18478 18.6112 1.43132C19.2375 1.66214 19.7708 2.0185 20.211 2.50038C20.6668 2.96655 21.0139 3.55834 21.2524 4.27575C21.5065 4.99306 21.6362 5.82828 21.6416 6.78139C21.6482 7.93762 21.4837 9.24326 21.1482 10.6983C20.8284 12.1533 20.423 13.6869 19.9322 15.299C19.4568 16.8955 18.9271 18.547 18.3431 20.2535C17.7745 21.9442 17.245 23.6269 16.7545 25.3016C16.2796 26.9606 15.8746 28.5723 15.5398 30.1367C15.2204 31.6854 15.0645 33.116 15.0719 34.4285C15.0792 35.7097 15.2492 36.7479 15.5818 37.5429C15.93 38.3221 16.3475 38.9292 16.8344 39.3639C17.3211 39.783 17.8383 40.0613 18.386 40.1988C18.9493 40.3363 19.4575 40.4037 19.9106 40.4011ZM35.2851 3.11793C35.0664 3.11917 34.865 3.43282 34.6811 4.05887C34.497 4.6693 34.322 5.49843 34.1561 6.54627C34.0057 7.57839 33.8641 8.78234 33.7313 10.1581C33.5984 11.5183 33.4737 12.9487 33.3572 14.4494C33.2564 15.95 33.1713 17.4739 33.1019 19.0212C33.0325 20.5529 32.9704 22.0064 32.9158 23.3817C33.4213 21.6132 33.8645 19.8606 34.2453 18.1241C34.626 16.3719 34.9447 14.7138 35.2014 13.1498C35.4737 11.5701 35.6687 10.1315 35.7863 8.83392C35.9195 7.52065 35.9836 6.42651 35.9786 5.55153C35.9743 4.78592 35.9084 4.19253 35.781 3.77137C35.6692 3.3345 35.5039 3.11668 35.2851 3.11793Z" fill="#FF8D67"/>
</svg>
