<svg width="25" height="25" viewBox="0 0 25 25" fill="none" xmlns="http://www.w3.org/2000/svg">
<path d="M12.2322 2.75488C17.755 2.75488 22.2322 7.23204 22.2322 12.7549C22.2322 18.2777 17.755 22.7549 12.2322 22.7549C6.70933 22.7549 2.23218 18.2777 2.23218 12.7549C2.23218 7.23204 6.70933 2.75488 12.2322 2.75488ZM12.2322 4.25488C7.53776 4.25488 3.73218 8.06046 3.73218 12.7549C3.73218 17.4493 7.53776 21.2549 12.2322 21.2549C16.9266 21.2549 20.7322 17.4493 20.7322 12.7549C20.7322 8.06046 16.9266 4.25488 12.2322 4.25488ZM12.2322 7.75488C12.6464 7.75488 12.9822 8.09067 12.9822 8.50488V12.0049H16.4822C16.8964 12.0049 17.2322 12.3407 17.2322 12.7549C17.2322 13.1691 16.8964 13.5049 16.4822 13.5049H12.9822V17.0049C12.9822 17.4191 12.6464 17.7549 12.2322 17.7549C11.818 17.7549 11.4822 17.4191 11.4822 17.0049V13.5049H7.98218C7.56796 13.5049 7.23218 13.1691 7.23218 12.7549C7.23218 12.3407 7.56796 12.0049 7.98218 12.0049H11.4822V8.50488C11.4822 8.09067 11.818 7.75488 12.2322 7.75488Z" fill="#242424"/>
</svg>
