<svg width="16" height="17" viewBox="0 0 16 17" fill="none" xmlns="http://www.w3.org/2000/svg">
<path d="M2 4.52173C2 3.14102 3.11929 2.02173 4.5 2.02173H11.5C12.8807 2.02173 14 3.14102 14 4.52173V11.5217C14 12.9024 12.8807 14.0217 11.5 14.0217H4.5C3.11929 14.0217 2 12.9024 2 11.5217V4.52173ZM4.5 3.02173C3.67157 3.02173 3 3.6933 3 4.52173V11.5217C3 12.3502 3.67157 13.0217 4.5 13.0217H11.5C12.3284 13.0217 13 12.3502 13 11.5217V4.52173C13 3.6933 12.3284 3.02173 11.5 3.02173H4.5Z" fill="#242424"/>
</svg>
